<?xml version="1.0" encoding="utf-8"?>
<!-- Generator: Adobe Illustrator 18.0.0, SVG Export Plug-In . SVG Version: 6.00 Build 0)  -->
<!DOCTYPE svg PUBLIC "-//W3C//DTD SVG 1.1//EN" "http://www.w3.org/Graphics/SVG/1.1/DTD/svg11.dtd">
<svg version="1.1" id="Icons" xmlns="http://www.w3.org/2000/svg" xmlns:xlink="http://www.w3.org/1999/xlink" x="0px" y="0px"
	 viewBox="0 -5 32 42" enable-background="new 0 0 32 32" xml:space="preserve">
<g>
	<path fill="#333333" d="M21,9H11c-1.103,0-2,0.897-2,2v10c0,1.103,0.897,2,2,2h10c1.103,0,2-0.897,2-2V11C23,9.897,22.103,9,21,9z
		 M11,21V11h10l0.001,10H11z"/>
	<path fill="#333333" d="M16,0C7.178,0,0,7.178,0,16s7.178,16,16,16s16-7.178,16-16S24.822,0,16,0z M16,30C8.28,30,2,23.72,2,16
		S8.28,2,16,2s14,6.28,14,14S23.72,30,16,30z"/>
</g>
</svg>
