<?xml version="1.0" encoding="utf-8"?>
<!-- Generator: Adobe Illustrator 18.0.0, SVG Export Plug-In . SVG Version: 6.00 Build 0)  -->
<!DOCTYPE svg PUBLIC "-//W3C//DTD SVG 1.1//EN" "http://www.w3.org/Graphics/SVG/1.1/DTD/svg11.dtd">
<svg version="1.1" id="Icons" xmlns="http://www.w3.org/2000/svg" xmlns:xlink="http://www.w3.org/1999/xlink" x="0px" y="0px"
	 viewBox="0 0 32 32" enable-background="new 0 0 32 32" xml:space="preserve">
<path fill="#E0EBFE" d="M21.15,15c4.42,0,8,3.58,8,8s-3.58,8-8,8s-8-3.58-8-8c0-0.9,0.15-1.76,0.42-2.56
	c0.49-1.45,1.38-2.72,2.55-3.66C17.49,15.67,19.24,15,21.15,15z"/>
<path fill="#5465CF" d="M8.33643,22.98584c-0.85547-0.37988-1.65967-0.94678-2.32129-1.63428
	c-1.396-1.4707-2.16504-3.40674-2.16504-5.45166c0-0.55225-0.44775-1-1-1s-1,0.44775-1,1c0,2.55957,0.96387,4.98438,2.71924,6.8335
	c0.84326,0.87695,1.86523,1.59619,2.95459,2.08008c0.84686,0.37653,1.72687,0.61395,2.62598,0.71631V30h-2c-0.55225,0-1,0.44775-1,1
	s0.44775,1,1,1h6c0.55225,0,1-0.44775,1-1s-0.44775-1-1-1h-2v-4.47479c0.11884-0.01355,0.2359-0.03278,0.35394-0.05115
	C13.58234,29.23596,17.04626,32,21.1499,32c4.9624,0,9-4.0376,9-9s-4.0376-9-9-9c-1.39423,0-2.76404,0.33453-4,0.94757V6.24023
	c0-1.65527-0.62061-3.21484-1.74365-4.38818C14.29053,0.67529,12.73926,0,11.1499,0c-3.30859,0-6,2.79932-6,6.24023v9.51953
	c0,1.65527,0.62061,3.21484,1.74414,4.3877C8.00879,21.32471,9.56006,22,11.1499,22c0.36407,0,0.72211-0.04559,1.07635-0.11401
	C12.18036,22.25482,12.1499,22.62592,12.1499,23c0,0.1651,0.01593,0.32617,0.02478,0.48914
	C10.89294,23.68262,9.55939,23.52972,8.33643,22.98584z M16.74951,17.55664C17.98877,16.55273,19.55176,16,21.1499,16
	c3.85986,0,7,3.14014,7,7s-3.14014,7-7,7s-7-3.14014-7-7c0-0.76416,0.12354-1.51758,0.36719-2.23975
	C14.94531,19.49463,15.71631,18.3877,16.74951,17.55664z M8.34229,18.76807c-0.76904-0.80273-1.19238-1.87109-1.19238-3.0083V15H9
	c0.27637,0,0.5-0.22363,0.5-0.5S9.27637,14,9,14H7.1499v-1H8c0.27637,0,0.5-0.22363,0.5-0.5S8.27637,12,8,12H7.1499v-1H9
	c0.27637,0,0.5-0.22363,0.5-0.5S9.27637,10,9,10H7.1499V9H8c0.27637,0,0.5-0.22363,0.5-0.5S8.27637,8,8,8H7.1499V7H9
	c0.27637,0,0.5-0.22363,0.5-0.5S9.27637,6,9,6H7.17285c0.12018-2.2243,1.84906-4,3.97705-4
	c1.04297,0,2.06494,0.44775,2.80811,1.23145C14.67139,3.97705,15.07147,4.95447,15.1275,6H13c-0.27637,0-0.5,0.22363-0.5,0.5
	S12.72363,7,13,7h2.1499v1H14c-0.27637,0-0.5,0.22363-0.5,0.5S13.72363,9,14,9h1.1499v1H13c-0.27637,0-0.5,0.22363-0.5,0.5
	S12.72363,11,13,11h2.1499v1H14c-0.27637,0-0.5,0.22363-0.5,0.5S13.72363,13,14,13h1.1499v1H13c-0.27637,0-0.5,0.22363-0.5,0.5
	S12.72363,15,13,15h2.1499v0.75977c0,0.19208-0.02527,0.40009-0.05188,0.60809c-0.97876,0.88959-1.74274,1.98108-2.24976,3.21204
	C11.3183,20.3349,9.49921,19.99091,8.34229,18.76807z"/>
<path fill="#5465CF" d="M17.44287,26.70703C17.63818,26.90234,17.89404,27,18.1499,27s0.51172-0.09766,0.70703-0.29297
	l2.29297-2.29297l2.29297,2.29297C23.63818,26.90234,23.89404,27,24.1499,27s0.51172-0.09766,0.70703-0.29297
	c0.39063-0.39063,0.39063-1.02344,0-1.41406L22.56396,23l2.29297-2.29297c0.39063-0.39063,0.39063-1.02344,0-1.41406
	s-1.02344-0.39063-1.41406,0l-2.29297,2.29297l-2.29297-2.29297c-0.39063-0.39063-1.02344-0.39063-1.41406,0
	s-0.39063,1.02344,0,1.41406L19.73584,23l-2.29297,2.29297C17.05225,25.68359,17.05225,26.31641,17.44287,26.70703z"/>
</svg>
