<?xml version="1.0" encoding="utf-8"?>
<!-- Generator: Adobe Illustrator 18.0.0, SVG Export Plug-In . SVG Version: 6.00 Build 0)  -->
<!DOCTYPE svg PUBLIC "-//W3C//DTD SVG 1.1//EN" "http://www.w3.org/Graphics/SVG/1.1/DTD/svg11.dtd">
<svg version="1.1" id="Icons" xmlns="http://www.w3.org/2000/svg" xmlns:xlink="http://www.w3.org/1999/xlink" x="0px" y="0px"
	 viewBox="0 -5 32 42" enable-background="new 0 0 32 32" xml:space="preserve">
<path fill="black" d="M21,1c-2.671,0-5.182,1.04-7.071,2.929C12.04,5.818,11,8.329,11,11c0,2.335,0.795,4.547,2.257,6.329
	l-3.836,3.836l-0.777-0.777c-0.375-0.375-1.039-0.375-1.414,0l-5.937,5.937c-0.391,0.391-0.391,1.023,0,1.414l2.969,2.969
	C4.449,30.895,4.704,31,4.969,31s0.52-0.105,0.707-0.293l5.937-5.937c0.391-0.391,0.391-1.023,0-1.414l-0.777-0.777l3.836-3.836
	C16.453,20.205,18.665,21,21,21c2.671,0,5.182-1.04,7.071-2.929C29.96,16.182,31,13.671,31,11s-1.04-5.182-2.929-7.071
	C26.182,2.04,23.671,1,21,1z M4.969,28.586l-1.555-1.555l4.523-4.523l1.555,1.555L4.969,28.586z M26.657,16.657
	C25.146,18.168,23.137,19,21,19c-2.135,0-4.142-0.831-5.653-2.34c-0.001-0.001-0.002-0.003-0.003-0.005s-0.003-0.002-0.005-0.003
	C13.831,15.142,13,13.135,13,11c0-2.137,0.832-4.146,2.343-5.657S18.863,3,21,3s4.146,0.832,5.657,2.343S29,8.863,29,11
	S28.168,15.146,26.657,16.657z"/>
<path fill="#333333" d="M20,5.5c-2.481,0-4.5,2.019-4.5,4.5c0,0.276,0.224,0.5,0.5,0.5s0.5-0.224,0.5-0.5c0-1.93,1.57-3.5,3.5-3.5
	c0.276,0,0.5-0.224,0.5-0.5S20.276,5.5,20,5.5z"/>
</svg>
