<?xml version="1.0" encoding="utf-8"?>
<!-- Generator: Adobe Illustrator 18.0.0, SVG Export Plug-In . SVG Version: 6.00 Build 0)  -->
<!DOCTYPE svg PUBLIC "-//W3C//DTD SVG 1.1//EN" "http://www.w3.org/Graphics/SVG/1.1/DTD/svg11.dtd">
<svg version="1.1" id="Icons" xmlns="http://www.w3.org/2000/svg" xmlns:xlink="http://www.w3.org/1999/xlink" x="0px" y="0px"
	 viewBox="0 -5 32 42" enable-background="new 0 0 32 32" xml:space="preserve">
<g>
	<path fill="#333333" d="M28.588,16.535c0.011-0.185,0.016-0.361,0.016-0.535c0-6.065-5.02-11-11.189-11
		C12.896,5,8.83,7.691,7.1,11.76C3.07,12.321,0,15.54,0,19.333C0,23.561,3.75,27,8.358,27h18.113C29.52,27,32,24.558,32,21.556
		C32,19.32,30.634,17.363,28.588,16.535z M26.472,25H8.358C4.853,25,2,22.458,2,19.333c0-2.943,2.581-5.422,5.876-5.644
		c0.397-0.027,0.741-0.286,0.875-0.661C10.041,9.423,13.522,7,17.415,7c5.067,0,9.189,4.037,9.189,9
		c0,0.333-0.025,0.688-0.079,1.117c-0.064,0.509,0.267,0.983,0.766,1.099C28.886,18.587,30,19.96,30,21.556
		C30,23.455,28.417,25,26.472,25z"/>
	<path fill="#333333" d="M16.555,12.168c-0.336-0.225-0.773-0.225-1.109,0l-3,2c-0.459,0.307-0.583,0.927-0.277,1.387
		c0.307,0.459,0.926,0.582,1.387,0.277L15,14.869V21c0,0.553,0.448,1,1,1s1-0.447,1-1v-6.131l1.445,0.963
		C18.616,15.945,18.809,16,18.999,16c0.323,0,0.64-0.156,0.833-0.445c0.306-0.46,0.182-1.08-0.277-1.387L16.555,12.168z"/>
</g>
</svg>
