<?xml version="1.0" encoding="utf-8"?>
<!-- Generator: Adobe Illustrator 18.0.0, SVG Export Plug-In . SVG Version: 6.00 Build 0)  -->
<!DOCTYPE svg PUBLIC "-//W3C//DTD SVG 1.1//EN" "http://www.w3.org/Graphics/SVG/1.1/DTD/svg11.dtd">
<svg version="1.1" id="Icons" xmlns="http://www.w3.org/2000/svg" xmlns:xlink="http://www.w3.org/1999/xlink" x="0px" y="0px"
	 viewBox="0 0 32 32" enable-background="new 0 0 32 32" xml:space="preserve">
<path fill="#5465CF" d="M10,15.76172C10,19.20166,12.69141,22,16,22s6-2.79834,6-6.23828V6.23828C22,2.79834,19.30859,0,16,0
	s-6,2.79834-6,6.23828V15.76172z M12,15h2c0.27637,0,0.5-0.22363,0.5-0.5S14.27637,14,14,14h-2v-1h1c0.27637,0,0.5-0.22363,0.5-0.5
	S13.27637,12,13,12h-1v-1h2c0.27637,0,0.5-0.22363,0.5-0.5S14.27637,10,14,10h-2V9h1c0.27637,0,0.5-0.22363,0.5-0.5S13.27637,8,13,8
	h-1V7h2c0.27637,0,0.5-0.22363,0.5-0.5S14.27637,6,14,6h-1.97723C12.14203,3.7757,13.87146,2,16,2s3.85797,1.7757,3.97723,4H18
	c-0.27637,0-0.5,0.22363-0.5,0.5S17.72363,7,18,7h2v1h-1c-0.27637,0-0.5,0.22363-0.5,0.5S18.72363,9,19,9h1v1h-2
	c-0.27637,0-0.5,0.22363-0.5,0.5S17.72363,11,18,11h2v1h-1c-0.27637,0-0.5,0.22363-0.5,0.5S18.72363,13,19,13h1v1h-2
	c-0.27637,0-0.5,0.22363-0.5,0.5S17.72363,15,18,15h2v0.76172C20,18.09863,18.20557,20,16,20s-4-1.90137-4-4.23828V15z"/>
<path fill="#5465CF" d="M24.29541,14.90039c-0.55225,0-1,0.44775-1,1c0,2.05322-0.76709,3.98779-2.15967,5.44727
	C19.75439,22.79395,17.93066,23.59082,16,23.59082s-3.75439-0.79688-5.13525-2.24316
	c-1.39307-1.45947-2.16016-3.39404-2.16016-5.44727c0-0.55225-0.44775-1-1-1s-1,0.44775-1,1
	c0,2.56982,0.96338,4.99512,2.71338,6.82813c1.52325,1.5954,3.47705,2.56775,5.58203,2.8031V30h-2c-0.55225,0-1,0.44775-1,1
	s0.44775,1,1,1h6c0.55225,0,1-0.44775,1-1s-0.44775-1-1-1h-2v-4.46838c2.10504-0.23535,4.05884-1.2077,5.58252-2.8031
	c1.74951-1.83301,2.71289-4.2583,2.71289-6.82813C25.29541,15.34814,24.84766,14.90039,24.29541,14.90039z"/>
</svg>
