<?xml version="1.0" encoding="utf-8"?>
<!-- Generator: Adobe Illustrator 18.0.0, SVG Export Plug-In . SVG Version: 6.00 Build 0)  -->
<!DOCTYPE svg PUBLIC "-//W3C//DTD SVG 1.1//EN" "http://www.w3.org/Graphics/SVG/1.1/DTD/svg11.dtd">
<svg version="1.1" id="Icons" xmlns="http://www.w3.org/2000/svg" xmlns:xlink="http://www.w3.org/1999/xlink" x="0px" y="0px"
	 viewBox="0 0 32 32" enable-background="new 0 0 32 32" xml:space="preserve">
<path fill="#E0EBFE" d="M13.43,20.41c0.51-1.48,1.43-2.77,2.64-3.7V16.7C17.43,15.63,19.14,15,21,15c4.42,0,8,3.58,8,8s-3.58,8-8,8
	c-3.96,0-7.25-2.88-7.89-6.66C13.04,23.9,13,23.46,13,23C13,22.09,13.15,21.22,13.43,20.41z"/>
<path fill="#5465CF" d="M8.33643,22.98584c-0.85547-0.37988-1.65967-0.94678-2.32129-1.63428
	c-1.396-1.4707-2.16504-3.40674-2.16504-5.45166c0-0.55225-0.44775-1-1-1s-1,0.44775-1,1c0,2.55957,0.96387,4.98438,2.71924,6.8335
	c0.84326,0.87695,1.86523,1.59619,2.95459,2.08008c0.84686,0.37653,1.72687,0.61395,2.62598,0.71631V30h-2c-0.55225,0-1,0.44775-1,1
	s0.44775,1,1,1h6c0.55225,0,1-0.44775,1-1s-0.44775-1-1-1h-2v-4.47321c0.0686-0.00787,0.13812-0.01685,0.20679-0.02643
	C13.45355,29.31952,16.93726,32,21,32c4.9624,0,9-4.0376,9-9s-4.0376-9-9-9c-1.35767,0-2.65979,0.30017-3.8501,0.86639V6.24023
	c0-1.65527-0.62061-3.21484-1.74365-4.38818C14.29053,0.67529,12.73926,0,11.1499,0c-3.30859,0-6,2.79932-6,6.24023v9.51953
	c0,1.65527,0.62061,3.21484,1.74414,4.3877C8.00879,21.32471,9.56006,22,11.1499,22c0.31274,0,0.61908-0.03406,0.92206-0.0835
	C12.02905,22.27423,12,22.63477,12,23c0,0.1698,0.01135,0.34155,0.02118,0.51318
	C10.75568,23.67908,9.51331,23.50958,8.33643,22.98584z M16.6792,17.50293l0.24756-0.19629C18.11377,16.45068,19.51563,16,21,16
	c3.85986,0,7,3.14014,7,7s-3.14014,7-7,7c-3.35974,0-6.20966-2.35553-6.85931-5.61731
	c0.00098-0.01825,0.00922-0.03412,0.00922-0.05261c0-0.11914-0.0296-0.22992-0.06781-0.33588C14.03577,23.65338,14,23.32172,14,23
	c0-0.75256,0.1236-1.48462,0.35449-2.1814c0.02643-0.05664,0.04401-0.11285,0.05927-0.17255
	C14.86749,19.38452,15.64587,18.29742,16.6792,17.50293z M8.34229,18.76807c-0.76904-0.80273-1.19238-1.87109-1.19238-3.0083V15H9
	c0.27637,0,0.5-0.22363,0.5-0.5S9.27637,14,9,14H7.1499v-1H8c0.27637,0,0.5-0.22363,0.5-0.5S8.27637,12,8,12H7.1499v-1H9
	c0.27637,0,0.5-0.22363,0.5-0.5S9.27637,10,9,10H7.1499V9H8c0.27637,0,0.5-0.22363,0.5-0.5S8.27637,8,8,8H7.1499V7H9
	c0.27637,0,0.5-0.22363,0.5-0.5S9.27637,6,9,6H7.17285c0.12018-2.2243,1.84906-4,3.97705-4
	c1.04297,0,2.06494,0.44775,2.80811,1.23145C14.67139,3.97705,15.07147,4.95447,15.1275,6H13c-0.27637,0-0.5,0.22363-0.5,0.5
	S12.72363,7,13,7h2.1499v1H14c-0.27637,0-0.5,0.22363-0.5,0.5S13.72363,9,14,9h1.1499v1H13c-0.27637,0-0.5,0.22363-0.5,0.5
	S12.72363,11,13,11h2.1499v1H14c-0.27637,0-0.5,0.22363-0.5,0.5S13.72363,13,14,13h1.1499v1H13c-0.27637,0-0.5,0.22363-0.5,0.5
	S12.72363,15,13,15h2.1499v0.75977c0,0.13574-0.02356,0.28613-0.03711,0.42944l-0.04297,0.03491v0.01172
	c-1.06268,0.91931-1.87463,2.09546-2.40771,3.42444C11.21997,20.29718,9.46124,19.94977,8.34229,18.76807z"/>
<path fill="#5465CF" d="M18.80078,27.67334C18.99023,27.88135,19.25879,28,19.54004,28c0.28174,0,0.55029-0.11865,0.73975-0.32715
	l5.45996-6c0.37158-0.4082,0.3418-1.04053-0.06689-1.4126c-0.4082-0.37158-1.0415-0.34131-1.4126,0.06689l-4.72021,5.18701
	l-1.80078-1.97754c-0.37109-0.4082-1.00293-0.43848-1.4126-0.06592c-0.4082,0.37158-0.43799,1.00391-0.06592,1.4126
	L18.80078,27.67334z"/>
</svg>
