<?xml version="1.0" encoding="utf-8"?>
<!-- Generator: Adobe Illustrator 18.0.0, SVG Export Plug-In . SVG Version: 6.00 Build 0)  -->
<!DOCTYPE svg PUBLIC "-//W3C//DTD SVG 1.1//EN" "http://www.w3.org/Graphics/SVG/1.1/DTD/svg11.dtd">
<svg version="1.1" id="Icons" xmlns="http://www.w3.org/2000/svg" xmlns:xlink="http://www.w3.org/1999/xlink" x="0px" y="0px"
	 viewBox="0 -5 32 42" enable-background="new 0 0 32 32" xml:space="preserve">
<g>
	<path fill="#333333" d="M27,7h-2.813l-5.462-5.841C18.632,1.06,18.503,1.002,18.368,1c-0.148,0.01-0.267,0.051-0.362,0.146
		l-3.033,3.033l-1.629-1.543c-0.191-0.18-0.489-0.183-0.683-0.005L7.911,7H5C4.703,7,4.422,7.132,4.232,7.359
		c-0.19,0.228-0.27,0.528-0.216,0.819l4,22C8.103,30.654,8.517,31,9,31h14c0.483,0,0.897-0.346,0.983-0.821l4-22
		c0.054-0.292-0.025-0.592-0.216-0.819C27.578,7.132,27.297,7,27,7z M25.274,9L25.274,9l-1.793,1.793L21.688,9H25.274z M15.274,19
		l-1.793,1.793L11.688,19l1.793-1.793L15.274,19z M11.688,14l1.793-1.793L15.274,14l-1.793,1.793L11.688,14z M14.188,16.5
		l1.793-1.793l1.793,1.793l-1.793,1.793L14.188,16.5z M18.481,17.207L20.274,19l-1.793,1.793L16.688,19L18.481,17.207z M16.688,14
		l1.793-1.793L20.274,14l-1.793,1.793L16.688,14z M18.481,10.793L16.688,9h3.586L18.481,10.793z M17.774,11.5l-1.793,1.793
		L14.188,11.5l1.793-1.793L17.774,11.5z M13.481,10.793L11.688,9h3.585L13.481,10.793z M12.774,11.5l-1.793,1.793L9.188,11.5
		l1.793-1.793L12.774,11.5z M12.774,16.5l-1.793,1.793L9.188,16.5l1.793-1.793L12.774,16.5z M12.774,21.5l-1.793,1.793L9.188,21.5
		l1.793-1.793L12.774,21.5z M13.481,22.207L15.273,24l-1.793,1.793L11.688,24L13.481,22.207z M14.188,21.5l1.793-1.793l1.793,1.793
		l-1.793,1.793L14.188,21.5z M18.481,22.207L20.273,24l-1.793,1.793L16.688,24L18.481,22.207z M19.188,21.5l1.793-1.793l1.793,1.793
		l-1.793,1.793L19.188,21.5z M19.188,16.5l1.793-1.793l1.793,1.793l-1.793,1.793L19.188,16.5z M19.188,11.5l1.793-1.793l1.793,1.793
		l-1.793,1.793L19.188,11.5z M18.348,2.219L22.818,7h-4.866l-2.253-2.133L18.348,2.219z M12.995,3.684L16.498,7H9.389L12.995,3.684z
		 M10.273,9l-1.793,1.793L6.688,9H10.273z M6.404,10.13l1.37,1.37l-0.948,0.948L6.404,10.13z M7.043,13.645l1.438-1.438L10.274,14
		L8.48,15.793l-1.28-1.28L7.043,13.645z M7.595,16.679l-0.08-0.437L7.773,16.5L7.595,16.679z M8.312,20.625l-0.5-2.749l0.668-0.668
		L10.273,19L8.48,20.793L8.312,20.625z M8.626,22.353L10.274,24l-1.141,1.141L8.626,22.353z M9.835,29l-0.097-0.536L10.273,29H9.835
		z M9.423,26.736l-0.073-0.399l1.63-1.63l1.793,1.793l-1.793,1.793L9.423,26.736z M11.688,29l1.793-1.793L15.273,29H11.688z
		 M14.188,26.5l1.793-1.793l1.793,1.793l-1.793,1.793L14.188,26.5z M16.688,29l1.793-1.793L20.273,29H16.688z M22.165,29h-0.477
		l0.583-0.583L22.165,29z M22.585,26.689l-1.605,1.604L19.188,26.5l1.793-1.793l1.663,1.663L22.585,26.689z M22.861,25.173
		L21.688,24l1.695-1.695L22.861,25.173z M23.697,20.577l-0.216,0.216L21.688,19l1.793-1.793l0.701,0.701L23.697,20.577z
		 M24.4,16.711L24.188,16.5l0.305-0.305L24.4,16.711z M24.808,14.466l-1.327,1.327L21.688,14l1.793-1.793l1.47,1.471L24.808,14.466z
		 M25.169,12.481L24.188,11.5l1.417-1.417L25.169,12.481z"/>
</g>
</svg>
