<?xml version="1.0" encoding="utf-8"?>
<!-- Generator: Adobe Illustrator 18.0.0, SVG Export Plug-In . SVG Version: 6.00 Build 0)  -->
<!DOCTYPE svg PUBLIC "-//W3C//DTD SVG 1.1//EN" "http://www.w3.org/Graphics/SVG/1.1/DTD/svg11.dtd">
<svg version="1.1" id="Icons" xmlns="http://www.w3.org/2000/svg" xmlns:xlink="http://www.w3.org/1999/xlink" x="0px" y="0px"
	 viewBox="0 -5 32 42" enable-background="new 0 0 32 32" xml:space="preserve">
<g>
	<path fill="white" d="M11.677,18.21c0.019,0.011,0.035,0.025,0.055,0.034c0.06,0.025,0.124,0.039,0.188,0.039
		s0.128-0.014,0.188-0.039c0.019-0.008,0.035-0.023,0.054-0.033c0.032-0.018,0.066-0.032,0.094-0.058
		c0.007-0.006,0.009-0.014,0.015-0.021c0.006-0.006,0.014-0.008,0.019-0.014l1.419-1.564c0.186-0.204,0.17-0.521-0.034-0.706
		c-0.204-0.185-0.519-0.17-0.706,0.034l-0.498,0.549C12.721,14.496,14.2,13,16,13c1.299,0,2.499,0.789,3.131,2.06
		c0.124,0.248,0.425,0.351,0.67,0.225c0.248-0.123,0.348-0.423,0.225-0.67C19.224,13.002,17.681,12,16,12
		c-2.38,0-4.319,1.999-4.537,4.535l-0.592-0.653c-0.186-0.204-0.502-0.22-0.706-0.034c-0.205,0.186-0.22,0.502-0.034,0.706
		l1.419,1.564c0.005,0.006,0.013,0.008,0.019,0.014c0.006,0.006,0.009,0.015,0.015,0.02C11.612,18.178,11.645,18.192,11.677,18.21z"
		/>
	<path fill="white" d="M20.451,15.882c-0.006-0.006-0.014-0.009-0.02-0.014c-0.006-0.006-0.008-0.014-0.015-0.02
		c-0.019-0.018-0.044-0.025-0.065-0.039c-0.028-0.018-0.054-0.038-0.085-0.05c-0.029-0.012-0.059-0.016-0.09-0.022
		c-0.033-0.007-0.064-0.014-0.097-0.014c-0.03,0-0.058,0.007-0.088,0.013c-0.033,0.006-0.066,0.011-0.098,0.024
		c-0.03,0.012-0.055,0.031-0.082,0.049c-0.022,0.014-0.047,0.022-0.067,0.04c-0.006,0.006-0.009,0.014-0.015,0.02
		c-0.006,0.006-0.014,0.008-0.02,0.014l-1.419,1.564c-0.186,0.204-0.17,0.521,0.034,0.706c0.096,0.087,0.216,0.13,0.336,0.13
		c0.136,0,0.271-0.056,0.37-0.164l0.498-0.549C19.279,19.504,17.8,21,16,21c-1.301,0-2.501-0.791-3.134-2.064
		c-0.123-0.247-0.424-0.347-0.67-0.226c-0.248,0.123-0.349,0.423-0.226,0.671C12.773,20.996,14.317,22,16,22
		c2.38,0,4.319-1.999,4.537-4.535l0.592,0.653c0.099,0.108,0.234,0.164,0.37,0.164c0.12,0,0.24-0.043,0.336-0.13
		c0.205-0.186,0.22-0.502,0.034-0.706L20.451,15.882z"/>
	<path fill="white" d="M28.588,16.535c0.011-0.185,0.016-0.361,0.016-0.535c0-6.065-5.02-11-11.189-11
		C12.896,5,8.83,7.691,7.1,11.76C3.07,12.321,0,15.54,0,19.333C0,23.561,3.75,27,8.358,27h18.113C29.52,27,32,24.558,32,21.556
		C32,19.32,30.634,17.363,28.588,16.535z M26.472,25H8.358C4.853,25,2,22.458,2,19.333c0-2.943,2.581-5.422,5.876-5.644
		c0.397-0.027,0.741-0.286,0.875-0.661C10.041,9.423,13.522,7,17.415,7c5.067,0,9.189,4.037,9.189,9
		c0,0.333-0.025,0.688-0.079,1.117c-0.064,0.509,0.267,0.983,0.766,1.099C28.886,18.587,30,19.96,30,21.556
		C30,23.455,28.417,25,26.472,25z"/>
</g>
</svg>
