<?xml version="1.0" encoding="utf-8"?>
<!-- Generator: Adobe Illustrator 18.0.0, SVG Export Plug-In . SVG Version: 6.00 Build 0)  -->
<!DOCTYPE svg PUBLIC "-//W3C//DTD SVG 1.1//EN" "http://www.w3.org/Graphics/SVG/1.1/DTD/svg11.dtd">
<svg version="1.1" id="Icons" xmlns="http://www.w3.org/2000/svg" xmlns:xlink="http://www.w3.org/1999/xlink" x="0px" y="0px"
	 viewBox="0 -5 32 42" enable-background="new 0 0 32 32" xml:space="preserve">

<path fill="white" d="M24.207,0.293C24.02,0.105,23.766,0,23.5,0H1C0.447,0,0,0.448,0,1v30c0,0.552,0.447,1,1,1h30
	c0.553,0,1-0.448,1-1V8.5c0-0.265-0.105-0.52-0.293-0.707L24.207,0.293z M11,2h10v6H11V2z M24,30H8V17h16V30z M30,30h-5V16.5
	c0-0.276-0.224-0.5-0.5-0.5h-17C7.224,16,7,16.224,7,16.5V30H2V2h8v6.5C10,8.776,10.224,9,10.5,9h11C21.776,9,22,8.776,22,8.5V2
	h1.086L30,8.914V30z"/>
<path fill="white" d="M19.5,2.5C19.224,2.5,19,2.724,19,3v4c0,0.276,0.224,0.5,0.5,0.5S20,7.276,20,7V3
	C20,2.724,19.776,2.5,19.5,2.5z"/>
<path fill="white" d="M10.5,27h11c0.276,0,0.5-0.224,0.5-0.5S21.776,26,21.5,26h-11c-0.276,0-0.5,0.224-0.5,0.5S10.224,27,10.5,27
	z"/>
<path fill="white" d="M10.5,25h11c0.276,0,0.5-0.224,0.5-0.5S21.776,24,21.5,24h-11c-0.276,0-0.5,0.224-0.5,0.5S10.224,25,10.5,25
	z"/>
<path fill="white" d="M10.5,23h11c0.276,0,0.5-0.224,0.5-0.5S21.776,22,21.5,22h-11c-0.276,0-0.5,0.224-0.5,0.5S10.224,23,10.5,23
	z"/>
<path fill="white" d="M10.5,21h11c0.276,0,0.5-0.224,0.5-0.5S21.776,20,21.5,20h-11c-0.276,0-0.5,0.224-0.5,0.5S10.224,21,10.5,21
	z"/>
</svg>
