<?xml version="1.0" encoding="utf-8"?>
<!-- Generator: Adobe Illustrator 18.0.0, SVG Export Plug-In . SVG Version: 6.00 Build 0)  -->
<!DOCTYPE svg PUBLIC "-//W3C//DTD SVG 1.1//EN" "http://www.w3.org/Graphics/SVG/1.1/DTD/svg11.dtd">
<svg version="1.1" id="Icons" xmlns="http://www.w3.org/2000/svg" xmlns:xlink="http://www.w3.org/1999/xlink" x="0px" y="0px"
	 viewBox="0 -5 32 42" enable-background="new 0 0 32 32" xml:space="preserve">
<g>
	<path fill="white" d="M28.966,20.203L22,17.552V10c0-1.669-1.285-2.982-2.935-3c-0.007,0,0.003,0.003-0.025,0
		c-0.006,0-0.011,0-0.017,0C17.354,7.012,16,8.354,16,10v8.688c0,1.049,0,2.134-0.071,3.189l-0.057,0.688l-1.315-1.624
		c-0.561-0.843-1.502-1.345-2.53-1.345c-0.545,0-1.081,0.146-1.551,0.422c-0.012,0.007-0.025,0.016-0.039,0.024
		c-0.689,0.416-1.17,1.069-1.357,1.844c-0.188,0.778-0.053,1.58,0.432,2.335l5.742,7.392C15.443,31.857,15.735,32,16.043,32
		l12.189,0c0.467,0,0.872-0.323,0.975-0.779l1.734-7.644C31.219,22.195,30.371,20.745,28.966,20.203z M27.435,30l-10.902,0
		l-5.387-6.928c-0.138-0.216-0.181-0.471-0.122-0.716c0.062-0.254,0.224-0.471,0.458-0.608c0.009-0.006,0.019-0.012,0.028-0.018
		c0.474-0.263,1.112-0.105,1.392,0.337c0.021,0.032,0.042,0.063,0.066,0.093l2.915,3.6c0.257,0.317,0.681,0.445,1.072,0.326
		c0.391-0.12,0.668-0.466,0.702-0.873l0.264-3.186C18,20.889,18,19.77,18,18.687V10c0-0.55,0.468-0.999,1.038-1
		C19.596,9.001,20,9.421,20,10v8.242c0,0.415,0.256,0.787,0.644,0.935l7.606,2.895c0.497,0.191,0.818,0.681,0.737,1.088L27.435,30z"
		/>
	<path fill="white" d="M16,3c0,1.654,1.346,3,3,3s3-1.346,3-3s-1.346-3-3-3S16,1.346,16,3z M20,3c0,0.551-0.449,1-1,1
		s-1-0.449-1-1s0.449-1,1-1S20,2.449,20,3z"/>
	<path fill="white" d="M11,0C9.346,0,8,1.346,8,3s1.346,3,3,3s3-1.346,3-3S12.654,0,11,0z M11,4c-0.551,0-1-0.449-1-1s0.449-1,1-1
		s1,0.449,1,1S11.551,4,11,4z"/>
	<path fill="white" d="M3,0C1.346,0,0,1.346,0,3s1.346,3,3,3s3-1.346,3-3S4.654,0,3,0z M3,4C2.449,4,2,3.551,2,3s0.449-1,1-1
		s1,0.449,1,1S3.551,4,3,4z"/>
	<path fill="white" d="M14,11c0-1.654-1.346-3-3-3s-3,1.346-3,3s1.346,3,3,3S14,12.654,14,11z M10,11c0-0.551,0.449-1,1-1
		s1,0.449,1,1s-0.449,1-1,1S10,11.551,10,11z"/>
	<path fill="white" d="M3,8c-1.654,0-3,1.346-3,3s1.346,3,3,3s3-1.346,3-3S4.654,8,3,8z M3,12c-0.551,0-1-0.449-1-1s0.449-1,1-1
		s1,0.449,1,1S3.551,12,3,12z"/>
	<path fill="white" d="M3,16c-1.654,0-3,1.346-3,3s1.346,3,3,3s3-1.346,3-3S4.654,16,3,16z M3,20c-0.551,0-1-0.449-1-1
		s0.449-1,1-1s1,0.449,1,1S3.551,20,3,20z"/>
</g>
</svg>
