<?xml version="1.0" encoding="utf-8"?>
<!-- Generator: Adobe Illustrator 18.0.0, SVG Export Plug-In . SVG Version: 6.00 Build 0)  -->
<!DOCTYPE svg PUBLIC "-//W3C//DTD SVG 1.1//EN" "http://www.w3.org/Graphics/SVG/1.1/DTD/svg11.dtd">
<svg version="1.1" id="Icons" xmlns="http://www.w3.org/2000/svg" xmlns:xlink="http://www.w3.org/1999/xlink" x="0px" y="0px"
	 viewBox="0 -5 32 42" enable-background="new 0 0 32 32" xml:space="preserve">

<g>
	<path fill="#000066" d="M29,16.311V6c0-3.282-6.54-5-13-5S3,2.718,3,6v21c0,3.282,6.54,5,13,5c1.527,0,3.021-0.093,4.441-0.274
		c0.062-0.008,0.112-0.039,0.17-0.057C21.373,31.878,22.172,32,23,32c4.963,0,9-4.037,9-9C32,20.343,30.836,17.959,29,16.311z
		 M23,14c-2.119,0-4.066,0.741-5.606,1.971C16.937,15.989,16.472,16,16,16c-7.117,0-11-1.981-11-3V8.783
		C7.426,10.243,11.725,11,16,11s8.574-0.757,11-2.217v6.167C25.793,14.347,24.438,14,23,14z M14.003,22.942
		C8.089,22.609,5,20.898,5,20v-4.217c2.337,1.406,6.409,2.156,10.526,2.209C14.574,19.41,14.015,21.112,14.003,22.942z M16,3
		c7.117,0,11,1.981,11,3s-3.883,3-11,3S5,7.019,5,6S8.883,3,16,3z M16,30c-7.117,0-11-1.981-11-3v-4.22
		c2.139,1.282,5.697,2,9.22,2.174c0.445,1.999,1.551,3.75,3.082,5.006C16.87,29.977,16.44,30,16,30z M23,30c-3.859,0-7-3.141-7-7
		s3.141-7,7-7s7,3.141,7,7S26.859,30,23,30z"/>
	<path fill="#000066" d="M26.265,19.322l-4.8,5.203l-1.73-1.876c-0.374-0.405-1.006-0.431-1.413-0.058
		c-0.406,0.375-0.432,1.007-0.058,1.413l2.465,2.673c0.009,0.01,0.023,0.013,0.033,0.023c0.01,0.01,0.014,0.024,0.025,0.034
		c0.058,0.053,0.126,0.082,0.192,0.119c0.038,0.022,0.07,0.052,0.111,0.069C21.21,26.972,21.337,27,21.465,27
		c0.128,0,0.254-0.028,0.375-0.077c0.041-0.016,0.074-0.048,0.113-0.07c0.065-0.037,0.133-0.065,0.19-0.118
		c0.011-0.01,0.015-0.024,0.025-0.034c0.01-0.01,0.023-0.013,0.033-0.023l5.535-6c0.374-0.405,0.349-1.038-0.058-1.413
		C27.272,18.892,26.64,18.915,26.265,19.322z"/>
</g>
</svg>
