<?xml version="1.0" encoding="utf-8"?>
<!-- Generator: Adobe Illustrator 18.0.0, SVG Export Plug-In . SVG Version: 6.00 Build 0)  -->
<!DOCTYPE svg PUBLIC "-//W3C//DTD SVG 1.1//EN" "http://www.w3.org/Graphics/SVG/1.1/DTD/svg11.dtd">
<svg version="1.1" id="Icons" xmlns="http://www.w3.org/2000/svg" xmlns:xlink="http://www.w3.org/1999/xlink" x="0px" y="0px"
	 viewBox="0 -5 32 42" enable-background="new 0 0 32 32" xml:space="preserve">
<g>
	<path fill="#333333" d="M27,22h-3v-3c0-0.552-0.448-1-1-1s-1,0.448-1,1v3h-3c-0.552,0-1,0.448-1,1s0.448,1,1,1h3v3
		c0,0.552,0.448,1,1,1s1-0.448,1-1v-3h3c0.552,0,1-0.448,1-1S27.552,22,27,22z"/>
	<path fill="#333333" d="M14.5,11c-1.93,0-3.5,1.57-3.5,3.5c0,0.276,0.224,0.5,0.5,0.5s0.5-0.224,0.5-0.5c0-1.378,1.122-2.5,2.5-2.5
		c0.276,0,0.5-0.224,0.5-0.5S14.776,11,14.5,11z"/>
	<path fill="#333333" d="M30,7.909c0-1.037-0.778-1.893-1.811-1.991l-5.676-0.54l-1.108-3.327C20.996,0.824,19.852,0,18.559,0
		h-7.117c-1.293,0-2.437,0.824-2.846,2.051L7.487,5.378l-5.676,0.54C0.778,6.016,0,6.872,0,7.909V24c0,1.103,0.897,2,2,2h12.525
		c1.24,3.49,4.565,6,8.475,6c4.962,0,9-4.038,9-9c0-2.136-0.752-4.099-2-5.644V7.909z M2,24V7.909l6.972-0.664l1.521-4.561
		C10.629,2.275,11.01,2,11.441,2h7.117c0.431,0,0.813,0.275,0.949,0.684l1.521,4.561L28,7.909v7.613C26.569,14.562,24.849,14,23,14
		c-0.362,0-0.718,0.028-1.069,0.07C21.473,10.649,18.544,8,15,8c-3.86,0-7,3.14-7,7c0,3.544,2.649,6.473,6.07,6.931
		C14.028,22.282,14,22.638,14,23c0,0.338,0.022,0.671,0.059,1H2z M14.542,19.954C12.003,19.718,10,17.6,10,15c0-2.757,2.243-5,5-5
		c2.6,0,4.718,2.003,4.954,4.542C17.441,15.45,15.45,17.441,14.542,19.954z M23,30c-3.86,0-7-3.14-7-7s3.14-7,7-7s7,3.14,7,7
		S26.86,30,23,30z"/>
</g>
</svg>
