<?xml version="1.0" encoding="utf-8"?>
<!-- Generator: Adobe Illustrator 18.0.0, SVG Export Plug-In . SVG Version: 6.00 Build 0)  -->
<!DOCTYPE svg PUBLIC "-//W3C//DTD SVG 1.1//EN" "http://www.w3.org/Graphics/SVG/1.1/DTD/svg11.dtd">
<svg version="1.1" id="Icons" xmlns="http://www.w3.org/2000/svg" xmlns:xlink="http://www.w3.org/1999/xlink" x="0px" y="0px"
	viewBox="0 -5 32 42" enable-background="new 0 0 32 32" xml:space="preserve">
<path fill="transparent" d="M16.0014,7.91955c0-1.05886-0.8561-1.91697-1.9607-1.91955c-1.1049,0.00258-2.0399,0.86069-2.0399,1.91955v1
	c0,4.85175,0.0164,9.69665-0.4596,14.52495l-2.86444-3.4554c-0.56943-0.8817-1.78033-1.1601-2.71844-0.6192
	c-0.94049,0.544-1.23806,1.7187-0.66006,2.6136l5.37424,7.3728C11.4256,30.3892,12.6256,31,13.904,31h7.3745
	c1.8817,0,3.509-1.311,3.9091-3.1494c0,0,1.7734-7.9269,1.775-7.9341c0.2664-1.1908-1.0712-2.27-2.2147-1.963
	c-0.2927,0.0785-0.5323,0.2865-0.7398,0.4824c-0.0296-0.9287-0.0055-1.8652-0.0055-2.796c0-1.0604-0.9231-1.92-2.0003-1.92
	c-1.0771,0-2.0003,0.8596-2.0003,1.92v-2.88c0-1.0605-0.9245-1.92-2.0017-1.92c-1.0678,0-1.9989,0.8454-1.9989,1.8932V8.91955
	V7.91955z"/>
<path fill="white" d="M9.86426,29.9458C10.80273,31.23193,12.31299,32,13.90381,32h7.37451
	c2.33496,0,4.39014-1.65576,4.88525-3.93115c1.72607-7.71533,1.7749-7.93408,1.7749-7.93408
	c0.16357-0.73242-0.02637-1.5083-0.52246-2.12744c-0.58984-0.73584-1.51563-1.16357-2.4209-1.10156
	c0.00049-0.13232,0.00146-0.26465,0.00293-0.39648l0.00439-0.86914c0-1.61035-1.3457-2.92041-3-2.92041
	c-0.35059,0-0.6875,0.05908-1.00049,0.16699v-0.12695c0-1.60986-1.34668-2.91992-3.00146-2.91992
	c-0.3501,0-0.68652,0.05811-0.99902,0.16504V8.99133C18.24756,8.05609,19,6.59283,19,5c0-2.75684-2.24316-5-5-5S9,2.24316,9,5
	c0,1.58795,0.75299,3.06097,2.00098,3.99774v0.38312c0.00049,3.79102,0.00098,7.68896-0.25586,11.53662l-1.26465-1.52539
	c-0.55176-0.81396-1.47705-1.29834-2.48828-1.29834c-0.53809,0-1.06836,0.14209-1.53418,0.41064
	c-0.70166,0.40576-1.18994,1.0542-1.37598,1.82666c-0.18262,0.75684-0.04883,1.53662,0.4082,2.24121L9.86426,29.9458z M10,5
	c0-2.20557,1.79443-4,4-4s4,1.79443,4,4c0,1.00458-0.37811,1.94196-1.02405,2.66284
	c-0.03784-0.43823-0.16693-0.84369-0.37445-1.2019C16.85089,6.01617,17,5.51746,17,5c0-1.6543-1.3457-3-3-3s-3,1.3457-3,3
	c0,0.53473,0.15094,1.03845,0.40955,1.48694c-0.21045,0.35419-0.34235,0.75159-0.38171,1.17755C10.38025,6.94189,10,6.00183,10,5z
	 M16,5c0,0.21991-0.0462,0.43341-0.11584,0.63849C15.37994,5.24493,14.74634,5.00165,14.03809,5
	c-0.72876,0.00171-1.38947,0.26086-1.91351,0.67407C12.04797,5.46021,12,5.23511,12,5c0-1.10303,0.89697-2,2-2S16,3.89697,16,5z
	 M6.02637,20.79932c0.05615-0.23438,0.20996-0.43457,0.43164-0.56299c0.16162-0.09326,0.34619-0.14258,0.53418-0.14258
	c0.35156,0,0.66748,0.16357,0.84424,0.43799c0.02148,0.0332,0.04541,0.06543,0.07031,0.0957l2.86426,3.45508
	c0.25781,0.31055,0.67676,0.43652,1.0625,0.31787c0.38623-0.11768,0.66309-0.45654,0.70264-0.85791
	c0.46582-4.72412,0.46533-9.52197,0.46484-14.16162V7.91943c0-0.49707,0.47705-0.91797,1.03711-0.91943
	c0.54053,0.00098,0.96338,0.40527,0.96338,0.91943v4.81348c0,0.55225,0.44775,1,1,1s1-0.44775,1-1
	c0-0.47559,0.4668-0.89307,0.99902-0.89307c0.53369,0,1.00146,0.42969,1.00146,0.91992v2.88037c0,0.55225,0.44775,1,1,1
	s1-0.44775,1-1c0-0.49023,0.46729-0.92041,1.00049-0.92041c0.54199,0,1,0.42139,1,0.92041l-0.00439,0.85352
	c-0.00537,0.65869-0.01025,1.31836,0.01074,1.97461c0.0127,0.39307,0.25439,0.74219,0.61816,0.89209
	c0.36328,0.14941,0.78076,0.07227,1.06787-0.19678c0.19482-0.18408,0.27734-0.23438,0.3125-0.24414
	c0.26709-0.07471,0.64063,0.08008,0.84766,0.33838c0.08203,0.10254,0.17139,0.26221,0.13086,0.44287
	c-0.021,0.09521-1.77441,7.93164-1.77539,7.9375C23.9126,29.00684,22.67969,30,21.27832,30h-7.37451
	c-0.9541,0-1.86035-0.46094-2.42334-1.23242l-5.34229-7.32666C6.01318,21.24707,5.97314,21.01904,6.02637,20.79932z"/>
</svg>
