<?xml version="1.0" encoding="utf-8"?>
<!-- Generator: Adobe Illustrator 18.0.0, SVG Export Plug-In . SVG Version: 6.00 Build 0)  -->
<!DOCTYPE svg PUBLIC "-//W3C//DTD SVG 1.1//EN" "http://www.w3.org/Graphics/SVG/1.1/DTD/svg11.dtd">
<svg version="1.1" id="Icons" xmlns="http://www.w3.org/2000/svg" xmlns:xlink="http://www.w3.org/1999/xlink" x="0px" y="0px"
	 viewBox="0 -5 32 42" enable-background="new 0 0 32 32" xml:space="preserve">
<g>
	<path fill="white" d="M2,31c0.047,0,0.094-0.003,0.142-0.01l4.345-0.621c0.214-0.03,0.412-0.13,0.565-0.283l1.396-1.396
		c0.173-0.173,0.276-0.404,0.291-0.648l0.104-1.75l1.751-0.104c0.506-0.03,0.91-0.434,0.939-0.939l0.111-1.896l2.535-0.604
		c0.18-0.042,0.345-0.135,0.476-0.266l4.097-4.096C19.793,18.794,20.883,19,22,19c4.963,0,9-4.038,9-9s-4.037-9-9-9s-9,4.038-9,9
		c0,1.118,0.206,2.208,0.613,3.249L1.914,24.948c-0.153,0.153-0.252,0.352-0.283,0.565L1.01,29.858
		c-0.044,0.312,0.061,0.626,0.283,0.849C1.481,30.896,1.736,31,2,31z M3.563,26.126l11.945-11.945
		c0.301-0.301,0.379-0.759,0.193-1.143C15.236,12.076,15,11.053,15,10c0-3.86,3.141-7,7-7s7,3.14,7,7s-3.141,7-7,7
		c-1.052,0-2.074-0.236-3.038-0.702c-0.386-0.185-0.843-0.107-1.143,0.193l-4.378,4.377l-2.983,0.71
		c-0.43,0.102-0.741,0.474-0.767,0.914l-0.103,1.75l-1.751,0.103c-0.506,0.03-0.91,0.433-0.939,0.939l-0.133,2.258l-0.893,0.892
		l-2.694,0.385L3.563,26.126z"/>
	<path fill="white" d="M24,11c1.654,0,3-1.346,3-3s-1.346-3-3-3s-3,1.346-3,3S22.346,11,24,11z M24,6c1.103,0,2,0.897,2,2
		s-0.897,2-2,2s-2-0.897-2-2S22.897,6,24,6z"/>
</g>
</svg>
