<?xml version="1.0" encoding="utf-8"?>
<!-- Generator: Adobe Illustrator 18.0.0, SVG Export Plug-In . SVG Version: 6.00 Build 0)  -->
<!DOCTYPE svg PUBLIC "-//W3C//DTD SVG 1.1//EN" "http://www.w3.org/Graphics/SVG/1.1/DTD/svg11.dtd">
<svg version="1.1" id="Icons" xmlns="http://www.w3.org/2000/svg" xmlns:xlink="http://www.w3.org/1999/xlink" x="0px" y="0px"
	 viewBox="0 -5 32 42" enable-background="new 0 0 32 32" xml:space="preserve">

<g>
	<path fill="#000066" d="M0.519,18.02c0.153,0.083,0.317,0.123,0.48,0.123c0.354,0,0.696-0.188,0.878-0.519
		C4.793,12.305,10.205,9,16,9s11.207,3.305,14.123,8.624c0.182,0.332,0.524,0.519,0.878,0.519c0.163,0,0.327-0.04,0.48-0.123
		c0.484-0.266,0.662-0.874,0.396-1.358C28.609,10.702,22.525,7,16,7S3.391,10.702,0.123,16.662
		C-0.143,17.146,0.035,17.754,0.519,18.02z"/>
	<path fill="#000066" d="M27.251,20.426c0.163,0,0.327-0.04,0.48-0.123c0.484-0.266,0.662-0.874,0.396-1.358
		c-2.495-4.55-7.142-7.376-12.127-7.376s-9.632,2.827-12.127,7.376c-0.266,0.484-0.088,1.092,0.396,1.358
		c0.153,0.083,0.317,0.123,0.48,0.123c0.354,0,0.696-0.188,0.878-0.519c2.144-3.91,6.118-6.338,10.373-6.338
		s8.229,2.429,10.373,6.338C26.555,20.239,26.897,20.426,27.251,20.426z"/>
	<path fill="#000066" d="M16,20.707c-1.894,0-3.662,1.078-4.614,2.813c-0.266,0.484-0.088,1.092,0.396,1.358
		C11.935,24.96,12.099,25,12.262,25c0.354,0,0.696-0.188,0.878-0.519c0.609-1.111,1.679-1.774,2.86-1.774s2.251,0.664,2.86,1.774
		C19.042,24.813,19.385,25,19.738,25c0.163,0,0.328-0.04,0.48-0.123c0.484-0.266,0.662-0.874,0.396-1.358
		C19.662,21.784,17.894,20.707,16,20.707z"/>
	<path fill="#000066" d="M22.623,22.19c0.182,0.332,0.524,0.519,0.878,0.519c0.163,0,0.327-0.04,0.48-0.123
		c0.484-0.266,0.662-0.874,0.396-1.358c-1.722-3.14-4.932-5.09-8.377-5.09s-6.655,1.951-8.377,5.09
		c-0.266,0.484-0.088,1.092,0.396,1.358c0.153,0.083,0.317,0.123,0.48,0.123c0.354,0,0.696-0.188,0.878-0.519
		c1.371-2.5,3.908-4.052,6.623-4.052S21.252,19.69,22.623,22.19z"/>
</g>
</svg>
