<?xml version="1.0" encoding="utf-8"?>
<!-- Generator: Adobe Illustrator 18.0.0, SVG Export Plug-In . SVG Version: 6.00 Build 0)  -->
<!DOCTYPE svg PUBLIC "-//W3C//DTD SVG 1.1//EN" "http://www.w3.org/Graphics/SVG/1.1/DTD/svg11.dtd">
<svg version="1.1" id="Icons" xmlns="http://www.w3.org/2000/svg" xmlns:xlink="http://www.w3.org/1999/xlink" x="0px" y="0px"
	 viewBox="0 -5 32 42" enable-background="new 0 0 32 32" xml:space="preserve">

<g>
	<path fill="white" d="M27.282,5.778l0.338-0.512c0.381-0.591,0.301-1.378-0.191-1.871c-2.342-2.349-6.239-3.066-9.265-1.704
		c-0.876,0.395-1.641,0.922-2.38,1.432c-0.54,0.373-1.05,0.725-1.587,1.017C11.706,5.496,8.484,5.452,6,4.098V2c0-0.552-0.448-1-1-1
		S4,1.448,4,2v28c0,0.552,0.448,1,1,1s1-0.448,1-1V18.173c1.302,0.537,2.716,0.82,4.135,0.82c1.749,0,3.496-0.41,5.019-1.239
		c0.63-0.343,1.208-0.742,1.768-1.127c0.696-0.48,1.354-0.934,2.064-1.254c2.044-0.92,4.729-0.57,6.531,0.851
		c0.474,0.373,1.104,0.439,1.642,0.171c0.53-0.263,0.852-0.792,0.842-1.381c-0.02-1.042-0.075-2.06-0.532-3.047
		c-0.18-0.389-0.396-0.73-0.604-1.06c-0.133-0.21-0.267-0.42-0.384-0.639c-0.402-0.753-0.506-1.613-0.294-2.42
		C26.372,7.142,26.814,6.479,27.282,5.778z M18.164,13.549c-0.875,0.394-1.64,0.921-2.379,1.431c-0.54,0.373-1.05,0.725-1.587,1.017
		c-2.49,1.354-5.712,1.313-8.198-0.042V6.313c2.906,1.199,6.395,1.086,9.154-0.416c0.629-0.343,1.208-0.741,1.767-1.127
		c0.696-0.48,1.354-0.935,2.065-1.254c2.17-0.977,4.93-0.545,6.727,1.011l-0.093,0.141c-0.539,0.807-1.096,1.642-1.367,2.672
		c-0.341,1.296-0.176,2.671,0.464,3.87c0.14,0.262,0.299,0.515,0.458,0.767c0.182,0.288,0.354,0.56,0.479,0.831
		c0.18,0.388,0.264,0.821,0.305,1.293C23.631,12.686,20.612,12.446,18.164,13.549z"/>
</g>
</svg>
