<?xml version="1.0" encoding="utf-8"?>
<!-- Generator: Adobe Illustrator 18.0.0, SVG Export Plug-In . SVG Version: 6.00 Build 0)  -->
<!DOCTYPE svg PUBLIC "-//W3C//DTD SVG 1.1//EN" "http://www.w3.org/Graphics/SVG/1.1/DTD/svg11.dtd">
<svg version="1.1" id="user__x26__ui" xmlns="http://www.w3.org/2000/svg" xmlns:xlink="http://www.w3.org/1999/xlink" x="0px"
	 y="0px" viewBox="0 -5 32 42"  enable-background="new 0 0 32 32" xml:space="preserve">
<path fill="white" d="M31,20c-0.55225,0-1,0.44727-1,1v7H2v-7c0-0.55273-0.44775-1-1-1s-1,0.44727-1,1v7c0,1.10254,0.89697,2,2,2
	h28c1.10303,0,2-0.89746,2-2v-7C32,20.44727,31.55225,20,31,20z"/>
<path fill="white" d="M16,2c-0.55225,0-1,0.44727-1,1v19.58594l-6.29297-6.29297c-0.39063-0.39063-1.02344-0.39063-1.41406,0
	s-0.39063,1.02344,0,1.41406l7.99933,7.99933c0.09235,0.09253,0.20306,0.16577,0.32568,0.21655C15.74017,25.97345,15.86981,26,16,26
	s0.25983-0.02655,0.38202-0.07709c0.12262-0.05078,0.23334-0.12402,0.32568-0.21655l7.99933-7.99933
	c0.39063-0.39063,0.39063-1.02344,0-1.41406s-1.02344-0.39063-1.41406,0L17,22.58594V3C17,2.44727,16.55225,2,16,2z"/>
</svg>
