<?xml version="1.0" encoding="utf-8"?>
<!-- Generator: Adobe Illustrator 18.0.0, SVG Export Plug-In . SVG Version: 6.00 Build 0)  -->
<!DOCTYPE svg PUBLIC "-//W3C//DTD SVG 1.1//EN" "http://www.w3.org/Graphics/SVG/1.1/DTD/svg11.dtd">
<svg version="1.1" id="Icons" xmlns="http://www.w3.org/2000/svg" xmlns:xlink="http://www.w3.org/1999/xlink" x="0px" y="0px"
	 viewBox="0 -5 32 42" enable-background="new 0 0 32 32" xml:space="preserve">

<g>
	<path fill="white" d="M31,12H17.473c0.005-0.48-0.099-0.988-0.411-1.489c-0.212-0.342-0.478-0.586-0.69-0.782
		C16.023,9.409,15.999,9.358,16,9.186c0.002-0.252,0.126-0.385,0.617-0.777c0.534-0.427,1.264-1.013,1.372-2.121
		c0.099-1.015-0.482-1.589-0.893-1.995L16.389,5l-0.637,0.777c0.091,0.09,0.228,0.226,0.246,0.317
		c-0.024,0.246-0.192,0.402-0.632,0.753c-0.54,0.432-1.355,1.085-1.367,2.32c-0.01,1.089,0.608,1.658,1.018,2.034
		c0.149,0.137,0.277,0.255,0.347,0.367c0.067,0.108,0.108,0.24,0.105,0.432H1c-0.552,0-1,0.448-1,1v14c0,0.552,0.448,1,1,1h28
		c1.654,0,3-1.346,3-3V13C32,12.448,31.552,12,31,12z M30,25c0,0.551-0.449,1-1,1H2V14h14.284c0.001,0,0.002,0,0.003,0
		s0.002,0,0.003,0H30V25z"/>
	<circle fill="white" cx="6" cy="17" r="1"/>
	<circle fill="white" cx="6" cy="20" r="1"/>
	<circle fill="white" cx="6" cy="23" r="1"/>
	<circle fill="white" cx="9" cy="17" r="1"/>
	<circle fill="white" cx="9" cy="20" r="1"/>
	<circle fill="white" cx="12" cy="17" r="1"/>
	<circle fill="white" cx="12" cy="20" r="1"/>
	<circle fill="white" cx="15" cy="17" r="1"/>
	<circle fill="white" cx="15" cy="20" r="1"/>
	<circle fill="white" cx="18" cy="17" r="1"/>
	<circle fill="white" cx="18" cy="20" r="1"/>
	<circle fill="white" cx="18" cy="23" r="1"/>
	<circle fill="white" cx="23" cy="17" r="1"/>
	<circle fill="white" cx="23" cy="20" r="1"/>
	<circle fill="white" cx="23" cy="23" r="1"/>
	<circle fill="white" cx="26" cy="17" r="1"/>
	<circle fill="white" cx="26" cy="20" r="1"/>
	<circle fill="white" cx="26" cy="23" r="1"/>
	<path fill="white" d="M15,22H9c-0.552,0-1,0.448-1,1s0.448,1,1,1h6c0.552,0,1-0.448,1-1S15.552,22,15,22z"/>
</g>
</svg>
