<?xml version="1.0" encoding="utf-8"?>
<!-- Generator: Adobe Illustrator 18.0.0, SVG Export Plug-In . SVG Version: 6.00 Build 0)  -->
<!DOCTYPE svg PUBLIC "-//W3C//DTD SVG 1.1//EN" "http://www.w3.org/Graphics/SVG/1.1/DTD/svg11.dtd">
<svg version="1.1" id="Icons" xmlns="http://www.w3.org/2000/svg" xmlns:xlink="http://www.w3.org/1999/xlink" x="0px" y="0px"
	 viewBox="0 -5 32 42" enable-background="new 0 0 32 32" xml:space="preserve">

<g>
	<path fill="#000066" d="M31.952,19.805c-0.134-0.413-0.518-0.693-0.952-0.693h-5.769l-1.781-5.423C23.315,13.277,22.932,13,22.5,13
		s-0.815,0.277-0.95,0.688l-1.781,5.423H14c-0.435,0-0.818,0.28-0.952,0.693c-0.133,0.413,0.016,0.865,0.368,1.119l4.658,3.35
		l-1.777,5.415c-0.135,0.412,0.01,0.863,0.359,1.119c0.349,0.255,0.822,0.258,1.175,0.005l4.669-3.357l4.669,3.357
		C27.344,30.938,27.548,31,27.753,31c0.208,0,0.415-0.064,0.591-0.193c0.35-0.256,0.494-0.707,0.359-1.119l-1.777-5.415l4.658-3.35
		C31.937,20.67,32.085,20.218,31.952,19.805z M25.163,23.077c-0.354,0.255-0.502,0.709-0.366,1.124l1.049,3.196l-2.762-1.986
		c-0.175-0.125-0.379-0.188-0.584-0.188s-0.409,0.063-0.584,0.188l-2.762,1.986l1.049-3.196c0.136-0.415-0.013-0.869-0.366-1.124
		l-2.733-1.965h3.39c0.432,0,0.815-0.277,0.95-0.688l1.057-3.218l1.057,3.218c0.135,0.411,0.519,0.688,0.95,0.688h3.39
		L25.163,23.077z"/>
	<path fill="#000066" d="M4.9,19.449c2.311,1.426,5.474,3.379,9.582,8.533c0.198,0.248,0.489,0.376,0.783,0.376
		c0.218,0,0.438-0.071,0.622-0.218c0.433-0.344,0.503-0.973,0.159-1.405c-4.326-5.425-7.66-7.484-10.096-8.987
		C3.076,15.972,2,15.308,2,10.484c0-4.08,3.114-7.399,6.941-7.399C12.226,3.084,15,6.062,15,9.587c0,0.552,0.447,1,1,1s1-0.448,1-1
		C17,6.017,19.774,3,23.059,3C26.886,3,30,6.319,30,10.4c0,4.26-0.961,5.267-2.427,6.317c-0.449,0.321-0.553,0.946-0.231,1.395
		c0.321,0.449,0.948,0.553,1.396,0.231C30.854,16.828,32,15.113,32,10.4C32,5.217,27.989,1,23.059,1
		c-3.003,0-5.686,1.858-7.069,4.532c-1.39-2.626-4.06-4.448-7.048-4.448C4.011,1.084,0,5.301,0,10.484
		C0,16.171,1.591,17.406,4.9,19.449z"/>
	<path fill="#000066" d="M8.423,4.275C7.158,4.591,6.002,5.258,5.08,6.205C4.166,7.141,3.52,8.311,3.21,9.588
		c-0.064,0.268,0.101,0.539,0.368,0.604c0.04,0.01,0.079,0.014,0.118,0.014c0.226,0,0.431-0.153,0.486-0.382
		c0.267-1.103,0.824-2.112,1.613-2.92c0.793-0.814,1.785-1.387,2.869-1.657C8.933,5.179,9.096,4.908,9.029,4.64
		C8.962,4.372,8.692,4.21,8.423,4.275z"/>
</g>
</svg>
