<?xml version="1.0" encoding="utf-8"?>
<!-- Generator: Adobe Illustrator 18.0.0, SVG Export Plug-In . SVG Version: 6.00 Build 0)  -->
<!DOCTYPE svg PUBLIC "-//W3C//DTD SVG 1.1//EN" "http://www.w3.org/Graphics/SVG/1.1/DTD/svg11.dtd">
<svg version="1.1" id="Icons" xmlns="http://www.w3.org/2000/svg" xmlns:xlink="http://www.w3.org/1999/xlink" x="0px" y="0px"
	 viewBox="0 -5 32 42" enable-background="new 0 0 32 32" xml:space="preserve">
<g>
	<path fill="white" d="M31.152,4.705c-0.001,0-0.002,0-0.003,0l-1.09-0.102c-0.055-0.16-0.117-0.316-0.19-0.468l0.68-0.807
		c0.348-0.349,0.348-0.917-0.001-1.267L29.96,1.474c-0.339-0.338-0.962-0.309-1.234-0.032L27.897,2.13
		c-0.156-0.077-0.316-0.145-0.481-0.203l-0.089-1.033C27.327,0.401,26.926,0,26.432,0h-0.833c-0.494,0-0.896,0.401-0.895,0.849
		l-0.1,1.072c-0.164,0.057-0.324,0.124-0.48,0.2l-0.796-0.669c-0.34-0.337-0.927-0.337-1.267,0.001L21.476,2.04
		c-0.171,0.168-0.265,0.394-0.265,0.633c-0.001,0.24,0.093,0.466,0.231,0.601l0.697,0.84c-0.073,0.152-0.137,0.308-0.191,0.467
		l-1.053,0.09C20.401,4.672,20,5.074,20,5.568V6.4c0,0.493,0.399,0.894,0.846,0.894c0.001,0,0.002,0,0.003,0l1.112,0.104
		c0.054,0.151,0.115,0.3,0.186,0.445L21.451,8.67c-0.349,0.35-0.348,0.918,0.001,1.268l0.587,0.585
		c0.338,0.341,0.965,0.308,1.234,0.033l0.873-0.725c0.141,0.068,0.284,0.127,0.432,0.18l0.094,1.092
		c0,0.494,0.402,0.896,0.896,0.896H26.4c0.494,0,0.896-0.402,0.895-0.85l0.105-1.131c0.146-0.051,0.29-0.11,0.431-0.177l0.839,0.704
		c0.339,0.338,0.929,0.338,1.268,0l0.587-0.587c0.17-0.168,0.264-0.394,0.264-0.633c0.001-0.24-0.093-0.465-0.231-0.601
		l-0.715-0.862c0.071-0.145,0.135-0.292,0.188-0.443l1.072-0.093C31.598,7.327,32,6.925,32,6.431V5.6
		C32,5.106,31.6,4.705,31.152,4.705z M31,6.334l-1.389,0.119c-0.209,0.018-0.386,0.165-0.439,0.368
		c-0.08,0.295-0.2,0.579-0.359,0.843c-0.109,0.182-0.092,0.414,0.044,0.577L29.75,9.32l-0.451,0.451l-1.081-0.91
		c-0.163-0.137-0.394-0.156-0.574-0.05c-0.263,0.153-0.543,0.269-0.833,0.342c-0.205,0.052-0.355,0.228-0.375,0.438L26.307,11
		h-0.642l-0.12-1.409c-0.018-0.21-0.166-0.387-0.371-0.441c-0.293-0.077-0.574-0.194-0.836-0.348
		c-0.181-0.108-0.41-0.087-0.572,0.046L22.68,9.75l-0.452-0.451l0.903-1.072c0.137-0.163,0.156-0.395,0.047-0.578
		c-0.157-0.265-0.276-0.549-0.354-0.845c-0.053-0.203-0.228-0.352-0.437-0.371L21,6.306V5.665l1.372-0.117
		c0.213-0.018,0.392-0.169,0.443-0.376c0.075-0.304,0.195-0.595,0.354-0.866c0.107-0.182,0.089-0.411-0.046-0.573L22.249,2.68
		L22.7,2.227l1.04,0.877c0.164,0.137,0.395,0.155,0.579,0.047c0.273-0.164,0.567-0.286,0.874-0.363
		c0.206-0.052,0.356-0.228,0.376-0.438L25.692,1h0.642l0.115,1.35c0.018,0.211,0.167,0.388,0.372,0.441
		c0.309,0.08,0.604,0.204,0.875,0.369c0.184,0.11,0.415,0.092,0.578-0.043l1.046-0.868l0.452,0.452l-0.884,1.048
		c-0.137,0.162-0.156,0.392-0.05,0.574c0.157,0.27,0.275,0.562,0.351,0.866c0.051,0.207,0.227,0.358,0.438,0.378L31,5.694V6.334z"/>
	<path fill="white" d="M26,4c-1.103,0-2,0.897-2,2s0.897,2,2,2s2-0.897,2-2S27.103,4,26,4z M26,7c-0.552,0-1-0.449-1-1
		s0.448-1,1-1s1,0.449,1,1S26.552,7,26,7z"/>
	<path fill="white" d="M1.69,22.588c0.002,0,0.004,0,0.007,0l2.224,0.208c0.107,0.303,0.232,0.6,0.373,0.89l-1.387,1.652
		c-0.342,0.34-0.529,0.791-0.528,1.272c0,0.479,0.188,0.93,0.526,1.266l1.174,1.172c0.676,0.681,1.929,0.617,2.468,0.064
		l1.746-1.448c0.281,0.135,0.568,0.255,0.862,0.359l0.188,2.184c0,0.988,0.805,1.792,1.793,1.792h1.664
		c0.988,0,1.792-0.804,1.788-1.699l0.211-2.263c0.293-0.102,0.581-0.22,0.862-0.354l1.679,1.41c0.677,0.677,1.86,0.675,2.533,0
		l1.177-1.176c0.339-0.338,0.525-0.789,0.525-1.267s-0.187-0.928-0.463-1.199l-1.429-1.724c0.142-0.288,0.268-0.584,0.377-0.887
		l2.145-0.187c0.989,0,1.794-0.804,1.794-1.793v-1.663c0-0.985-0.801-1.788-1.693-1.788c-0.002,0-0.005,0-0.007,0l-2.182-0.205
		c-0.108-0.318-0.234-0.63-0.379-0.935l1.355-1.613c0.698-0.698,0.698-1.834,0-2.535l-1.177-1.177
		c-0.679-0.677-1.925-0.614-2.467-0.062l-1.657,1.376c-0.313-0.155-0.634-0.29-0.962-0.405l-0.179-2.065
		c0-0.987-0.803-1.791-1.79-1.791h-1.666c-0.988,0-1.792,0.803-1.788,1.698L9.21,11.841c-0.328,0.113-0.649,0.247-0.962,0.399
		l-1.591-1.339c-0.679-0.675-1.857-0.674-2.534,0.003L2.949,12.08c-0.339,0.337-0.526,0.787-0.527,1.266
		c-0.001,0.48,0.186,0.931,0.463,1.202l1.395,1.68c-0.146,0.304-0.274,0.615-0.384,0.934L1.79,17.344
		c-0.987,0-1.79,0.804-1.79,1.792V20.8C0,21.786,0.799,22.588,1.69,22.588z M2,19.33l2.744-0.233
		c0.425-0.036,0.78-0.338,0.885-0.752c0.153-0.609,0.393-1.191,0.71-1.73c0.214-0.363,0.178-0.822-0.092-1.146l-1.752-2.105
		l0.906-0.908l2.079,1.753c0.326,0.276,0.793,0.313,1.157,0.094c0.548-0.328,1.137-0.572,1.75-0.727
		c0.41-0.104,0.711-0.455,0.751-0.877L11.386,10h1.282l0.23,2.699c0.036,0.423,0.335,0.777,0.745,0.883
		c0.614,0.159,1.203,0.407,1.749,0.737c0.364,0.22,0.829,0.187,1.156-0.086l2.089-1.739l0.906,0.907l-1.768,2.097
		c-0.272,0.323-0.313,0.782-0.1,1.147c0.315,0.543,0.552,1.125,0.701,1.732c0.102,0.413,0.453,0.717,0.877,0.757L22,19.388v1.281
		l-2.776,0.237c-0.42,0.036-0.771,0.331-0.881,0.737c-0.159,0.593-0.4,1.16-0.717,1.684c-0.221,0.364-0.186,0.828,0.086,1.155
		l1.791,2.154l-0.905,0.906l-2.162-1.821c-0.325-0.271-0.784-0.313-1.147-0.099c-0.525,0.305-1.087,0.536-1.669,0.685
		c-0.409,0.104-0.708,0.455-0.748,0.875L12.612,30H11.33l-0.24-2.818c-0.035-0.422-0.333-0.776-0.743-0.883
		c-0.585-0.153-1.146-0.387-1.668-0.694c-0.364-0.213-0.821-0.178-1.146,0.092l-2.171,1.806l-0.905-0.905l1.805-2.145
		c0.274-0.326,0.313-0.79,0.095-1.156c-0.315-0.529-0.554-1.097-0.708-1.688c-0.107-0.407-0.456-0.703-0.875-0.742L2,20.612V19.33z"
		/>
	<path fill="white" d="M12,24c2.206,0,4-1.794,4-4s-1.794-4-4-4s-4,1.794-4,4S9.794,24,12,24z M12,18c1.103,0,2,0.897,2,2
		s-0.897,2-2,2s-2-0.897-2-2S10.897,18,12,18z"/>
</g>
</svg>
