<?xml version="1.0" encoding="utf-8"?>
<!-- Generator: Adobe Illustrator 18.0.0, SVG Export Plug-In . SVG Version: 6.00 Build 0)  -->
<!DOCTYPE svg PUBLIC "-//W3C//DTD SVG 1.1//EN" "http://www.w3.org/Graphics/SVG/1.1/DTD/svg11.dtd">
<svg version="1.1" id="user__x26__ui" xmlns="http://www.w3.org/2000/svg" xmlns:xlink="http://www.w3.org/1999/xlink" x="0px"
	 y="0px" viewBox="0 -5 32 42" enable-background="new 0 0 32 32" xml:space="preserve">
<path fill="white" d="M29,4h-8V2c0-1.10254-0.89746-2-2-2h-7c-1.10254,0-2,0.89746-2,2v2H2C1.44727,4,1,4.44727,1,5s0.44727,1,1,1
	h2v24c0,1.10254,0.89746,2,2,2h19c1.10254,0,2-0.89746,2-2V6h2c0.55273,0,1-0.44727,1-1S29.55273,4,29,4z M12,2h7v2h-7V2z M25,30H6
	V6h5h9h5V30z"/>
<path fill="white" d="M10.5,11c-0.27637,0-0.5,0.22363-0.5,0.5v13c0,0.27637,0.22363,0.5,0.5,0.5s0.5-0.22363,0.5-0.5v-13
	C11,11.22363,10.77637,11,10.5,11z"/>
<path fill="white" d="M15.5,11c-0.27637,0-0.5,0.22363-0.5,0.5v13c0,0.27637,0.22363,0.5,0.5,0.5s0.5-0.22363,0.5-0.5v-13
	C16,11.22363,15.77637,11,15.5,11z"/>
<path fill="white" d="M20,24.5c0,0.27637,0.22363,0.5,0.5,0.5s0.5-0.22363,0.5-0.5v-13c0-0.27637-0.22363-0.5-0.5-0.5
	S20,11.22363,20,11.5V24.5z"/>
</svg>
