<?xml version="1.0" encoding="utf-8"?>
<!-- Generator: Adobe Illustrator 18.0.0, SVG Export Plug-In . SVG Version: 6.00 Build 0)  -->
<!DOCTYPE svg PUBLIC "-//W3C//DTD SVG 1.1//EN" "http://www.w3.org/Graphics/SVG/1.1/DTD/svg11.dtd">
<svg version="1.1" id="Icons" xmlns="http://www.w3.org/2000/svg" xmlns:xlink="http://www.w3.org/1999/xlink" x="0px" y="0px"
	 viewBox="0 -5 32 42" enable-background="new 0 0 32 32" xml:space="preserve">

<path fill="white" d="M1,8.439c0.553,0,1-0.448,1-1V2.971l9.41,9.724C11.606,12.898,11.867,13,12.129,13
	c0.251,0,0.501-0.093,0.695-0.281c0.396-0.384,0.407-1.017,0.023-1.414L3.861,2.018H8c0.553,0,1-0.448,1-1s-0.447-1-1-1H1.583
	c-0.06-0.006-0.118-0.005-0.178,0H1c-0.553,0-1,0.448-1,1v6.421C0,7.991,0.447,8.439,1,8.439z"/>
<path fill="white" d="M32,1.018c0-0.552-0.447-1-1-1h-0.403c-0.061-0.005-0.119-0.006-0.18,0H24c-0.553,0-1,0.448-1,1s0.447,1,1,1
	h4.139l-8.987,9.287c-0.384,0.397-0.373,1.03,0.023,1.414C19.37,12.907,19.62,13,19.871,13c0.262,0,0.522-0.102,0.719-0.305
	L30,2.971v4.468c0,0.552,0.447,1,1,1s1-0.448,1-1V1.018z"/>
<path fill="white" d="M23,30.982c0,0.552,0.447,1,1,1h6.427C30.457,31.985,30.485,32,30.516,32c0.031,0,0.061-0.015,0.092-0.018
	H31c0.553,0,1-0.448,1-1v-6.421c0-0.552-0.447-1-1-1s-1,0.448-1,1v4.468l-9.41-9.724c-0.384-0.396-1.017-0.407-1.414-0.023
	c-0.396,0.384-0.407,1.017-0.023,1.414l8.987,9.287H24C23.447,29.982,23,30.43,23,30.982z"/>
<path fill="white" d="M1,31.982h0.392C1.423,31.985,1.453,32,1.484,32c0.03,0,0.058-0.015,0.088-0.018H8c0.553,0,1-0.448,1-1
	s-0.447-1-1-1H3.861l8.987-9.287c0.384-0.397,0.373-1.03-0.023-1.414c-0.396-0.384-1.03-0.373-1.414,0.023L2,29.029v-4.468
	c0-0.552-0.447-1-1-1s-1,0.448-1,1v6.421C0,31.535,0.447,31.982,1,31.982z"/>
</svg>
