<?xml version="1.0" encoding="utf-8"?>
<!-- Generator: Adobe Illustrator 18.0.0, SVG Export Plug-In . SVG Version: 6.00 Build 0)  -->
<!DOCTYPE svg PUBLIC "-//W3C//DTD SVG 1.1//EN" "http://www.w3.org/Graphics/SVG/1.1/DTD/svg11.dtd">
<svg version="1.1" id="Icons" xmlns="http://www.w3.org/2000/svg" xmlns:xlink="http://www.w3.org/1999/xlink" x="0px" y="0px"
	 viewBox="0 -5 32 42" enable-background="new 0 0 32 32" xml:space="preserve">
<g>
	<path fill="white" d="M16,32c6.46,0,13-1.718,13-5V6c0-3.282-6.54-5-13-5S3,2.718,3,6v21C3,30.282,9.54,32,16,32z M27,13
		c0,1.019-3.883,3-11,3S5,14.019,5,13V8.783C7.426,10.243,11.725,11,16,11s8.574-0.757,11-2.217V13z M16,18
		c4.275,0,8.574-0.757,11-2.217V20c0,1.019-3.883,3-11,3S5,21.019,5,20v-4.217C7.426,17.243,11.725,18,16,18z M16,30
		c-7.117,0-11-1.981-11-3v-4.217C7.426,24.243,11.725,25,16,25s8.574-0.757,11-2.217V27C27,28.019,23.117,30,16,30z M16,3
		c7.117,0,11,1.981,11,3s-3.883,3-11,3S5,7.019,5,6S8.883,3,16,3z"/>
</g>
</svg>
