<?xml version="1.0" encoding="utf-8"?>
<!-- Generator: Adobe Illustrator 18.0.0, SVG Export Plug-In . SVG Version: 6.00 Build 0)  -->
<!DOCTYPE svg PUBLIC "-//W3C//DTD SVG 1.1//EN" "http://www.w3.org/Graphics/SVG/1.1/DTD/svg11.dtd">
<svg version="1.1" id="Icons" xmlns="http://www.w3.org/2000/svg" xmlns:xlink="http://www.w3.org/1999/xlink" x="0px" y="0px"
	 viewBox="0 -5 32 42" enable-background="new 0 0 32 32" xml:space="preserve">
<path fill="white" d="M19.167,20.753C19.691,19.962,20,19.017,20,18c0-2.757-2.243-5-5-5s-5,2.243-5,5s2.243,5,5,5
	c1.017,0,1.962-0.309,2.753-0.833l3.54,3.54C21.488,25.902,21.744,26,22,26s0.512-0.098,0.707-0.293
	c0.391-0.391,0.391-1.023,0-1.414L19.167,20.753z M12,18c0-1.654,1.346-3,3-3s3,1.346,3,3s-1.346,3-3,3S12,19.654,12,18z"/>
<path fill="white" d="M31,9h-1V6c0-0.552-0.447-1-1-1H14.5l-1.2-1.6C13.111,3.148,12.814,3,12.5,3H3C2.447,3,2,3.448,2,4v5H1
	C0.726,9,0.463,9.113,0.273,9.313c-0.188,0.199-0.287,0.468-0.271,0.743l1,18C1.031,28.585,1.47,29,2,29h28
	c0.53,0,0.969-0.415,0.998-0.944l1-18c0.016-0.274-0.083-0.543-0.271-0.743C31.537,9.113,31.274,9,31,9z M4,5h8l1.2,1.6
	C13.389,6.852,13.686,7,14,7h14v2H4V5z M29.054,27H2.946l-0.89-16h27.887L29.054,27z"/>
</svg>
