<?xml version="1.0" encoding="utf-8"?>
<!-- Generator: Adobe Illustrator 18.0.0, SVG Export Plug-In . SVG Version: 6.00 Build 0)  -->
<!DOCTYPE svg PUBLIC "-//W3C//DTD SVG 1.1//EN" "http://www.w3.org/Graphics/SVG/1.1/DTD/svg11.dtd">
<svg version="1.1" id="Icons" xmlns="http://www.w3.org/2000/svg" xmlns:xlink="http://www.w3.org/1999/xlink" x="0px" y="0px"
	 viewBox="0 -5 32 42" enable-background="new 0 0 32 32" xml:space="preserve">
<g>
	<path fill="#333333" d="M14,9h-4c-0.553,0-1,0.448-1,1v12c0,0.552,0.447,1,1,1h4c0.553,0,1-0.448,1-1V10C15,9.448,14.553,9,14,9z
		 M13,21h-2V11h2V21z"/>
	<path fill="#333333" d="M22,9h-4c-0.553,0-1,0.448-1,1v12c0,0.552,0.447,1,1,1h4c0.553,0,1-0.448,1-1V10C23,9.448,22.553,9,22,9z
		 M21,21h-2V11h2V21z"/>
	<path fill="#333333" d="M16,0C7.178,0,0,7.178,0,16s7.178,16,16,16s16-7.178,16-16S24.822,0,16,0z M16,30C8.28,30,2,23.72,2,16
		S8.28,2,16,2s14,6.28,14,14S23.72,30,16,30z"/>
</g>
</svg>
