<?xml version="1.0" encoding="utf-8"?>
<!-- Generator: Adobe Illustrator 18.0.0, SVG Export Plug-In . SVG Version: 6.00 Build 0)  -->
<!DOCTYPE svg PUBLIC "-//W3C//DTD SVG 1.1//EN" "http://www.w3.org/Graphics/SVG/1.1/DTD/svg11.dtd">
<svg version="1.1" id="Icons" xmlns="http://www.w3.org/2000/svg" xmlns:xlink="http://www.w3.org/1999/xlink" x="0px" y="0px"
	 viewBox="0 -5 32 42" enable-background="new 0 0 32 32" xml:space="preserve">
<g>
	<path fill="white" d="M22.698,9c-0.239,0-0.475,0.068-0.678,0.197l-4.421,2.78v-1.636C17.6,9.602,17.016,9,16.299,9
		c-0.239,0-0.474,0.068-0.679,0.197l-8.996,5.658C6.233,15.1,6,15.528,6,16s0.233,0.9,0.623,1.145l8.997,5.659
		C15.825,22.932,16.06,23,16.299,23c0.717,0,1.301-0.602,1.301-1.341v-1.636l4.419,2.779c0.205,0.13,0.44,0.198,0.68,0.198
		C23.416,23,24,22.398,24,21.659V10.341C24,9.602,23.416,9,22.698,9z M22,20.428l-4.868-3.062c-0.162-0.102-0.347-0.153-0.532-0.153
		c-0.166,0-0.333,0.042-0.483,0.125c-0.318,0.176-0.517,0.511-0.517,0.875v2.215L8.56,16l7.04-4.428v2.215
		c0,0.364,0.198,0.699,0.517,0.875c0.317,0.175,0.708,0.164,1.016-0.029L22,11.572V20.428z"/>
	<path fill="white" d="M16,0C7.178,0,0,7.178,0,16s7.178,16,16,16s16-7.178,16-16S24.822,0,16,0z M16,30C8.28,30,2,23.72,2,16
		S8.28,2,16,2s14,6.28,14,14S23.72,30,16,30z"/>
</g>
</svg>
