<?xml version="1.0" encoding="UTF-8" standalone="no"?>
<!-- Generator: Adobe Illustrator 16.0.0, SVG Export Plug-In . SVG Version: 6.00 Build 0)  -->

<svg
   xmlns:dc="http://purl.org/dc/elements/1.1/"
   xmlns:cc="http://creativecommons.org/ns#"
   xmlns:rdf="http://www.w3.org/1999/02/22-rdf-syntax-ns#"
   xmlns:svg="http://www.w3.org/2000/svg"
   xmlns="http://www.w3.org/2000/svg"
   xmlns:sodipodi="http://sodipodi.sourceforge.net/DTD/sodipodi-0.dtd"
   xmlns:inkscape="http://www.inkscape.org/namespaces/inkscape"
   version="1.1"
   id="Capa_1"
   x="0px"
   y="0px"
   viewBox="0 0 511.627 511.627"
   style="enable-background:new 0 0 511.627 511.627;"
   xml:space="preserve"
   inkscape:version="0.91 r13725"
   sodipodi:docname="checkboxquestion.svg"><metadata
     id="metadata51"><rdf:RDF><cc:Work
         rdf:about=""><dc:format>image/svg+xml</dc:format><dc:type
           rdf:resource="http://purl.org/dc/dcmitype/StillImage" /><dc:title></dc:title></cc:Work></rdf:RDF></metadata><defs
     id="defs49" /><sodipodi:namedview
     pagecolor="#ffffff"
     bordercolor="#666666"
     borderopacity="1"
     objecttolerance="10"
     gridtolerance="10"
     guidetolerance="10"
     inkscape:pageopacity="0"
     inkscape:pageshadow="2"
     inkscape:window-width="852"
     inkscape:window-height="480"
     id="namedview47"
     showgrid="false"
     inkscape:zoom="0.46127353"
     inkscape:cx="267.98178"
     inkscape:cy="255.81351"
     inkscape:window-x="0"
     inkscape:window-y="0"
     inkscape:window-maximized="0"
     inkscape:current-layer="Capa_1" /><g
     id="g17" /><g
     id="g19" /><g
     id="g21" /><g
     id="g23" /><g
     id="g25" /><g
     id="g27" /><g
     id="g29" /><g
     id="g31" /><g
     id="g33" /><g
     id="g35" /><g
     id="g37" /><g
     id="g39" /><g
     id="g41" /><g
     id="g43" /><g
     id="g45" /><g
     id="g5614"
     transform="translate(60.985509,54.48177)"><g
       id="g5616"><path
         inkscape:connector-curvature="0"
         d="M 109.172,0 94.508,14.664 c -1.124,-0.637 -2.389,-0.983 -3.68,-1.008 l -80,0 c -4.418,0 -8,3.582 -8,8 l 0,80 c 0,4.418 3.582,8 8,8 l 80,0 c 4.418,0 8,-3.582 8,-8 l 0,-68.688 L 120.484,11.312 109.172,0 Z m -26.344,93.656 -64,0 0,-64 60.688,0 L 50.828,58.344 40.484,48 29.172,59.312 l 16,16 c 3.124,3.123 8.188,3.123 11.312,0 l 26.344,-26.344 0,44.688 z"
         id="path5618" /></g></g><g
     id="g5620"
     transform="translate(60.985509,54.48177)"><g
       id="g5622"><path
         inkscape:connector-curvature="0"
         d="m 109.172,144 -14.664,14.664 c -1.124,-0.637 -2.389,-0.983 -3.68,-1.008 l -80,0 c -4.418,0 -8,3.582 -8,8 l 0,80 c 0,4.418 3.582,8 8,8 l 80,0 c 4.418,0 8,-3.582 8,-8 l 0,-68.688 21.656,-21.656 L 109.172,144 Z m -26.344,93.656 -64,0 0,-64 60.688,0 L 50.828,202.344 40.484,192 l -11.312,11.312 16,16 c 3.124,3.123 8.188,3.123 11.312,0 l 26.344,-26.344 0,44.688 z"
         id="path5624" /></g></g><g
     id="g5626"
     transform="translate(60.985509,54.48177)"><g
       id="g5628"><path
         inkscape:connector-curvature="0"
         d="m 109.172,280 -14.664,14.664 c -1.124,-0.637 -2.389,-0.983 -3.68,-1.008 l -80,0 c -4.418,0 -8,3.582 -8,8 l 0,80 c 0,4.418 3.582,8 8,8 l 80,0 c 4.418,0 8,-3.582 8,-8 l 0,-68.688 21.656,-21.656 L 109.172,280 Z m -26.344,93.656 -64,0 0,-64 60.688,0 L 50.828,338.344 40.484,328 l -11.312,11.312 16,16 c 3.124,3.123 8.188,3.123 11.312,0 l 26.344,-26.344 0,44.688 z"
         id="path5630" /></g></g><g
     id="g5668"
     transform="translate(60.985509,54.48177)" /><g
     id="g5670"
     transform="translate(60.985509,54.48177)" /><g
     id="g5672"
     transform="translate(60.985509,54.48177)" /><g
     id="g5674"
     transform="translate(60.985509,54.48177)" /><g
     id="g5676"
     transform="translate(60.985509,54.48177)" /><g
     id="g5678"
     transform="translate(60.985509,54.48177)" /><g
     id="g5680"
     transform="translate(60.985509,54.48177)" /><g
     id="g5682"
     transform="translate(60.985509,54.48177)" /><g
     id="g5684"
     transform="translate(60.985509,54.48177)" /><g
     id="g5686"
     transform="translate(60.985509,54.48177)" /><g
     id="g5688"
     transform="translate(60.985509,54.48177)" /><g
     id="g5690"
     transform="translate(60.985509,54.48177)" /><g
     id="g5692"
     transform="translate(60.985509,54.48177)" /><g
     id="g5694"
     transform="translate(60.985509,54.48177)" /><g
     id="g5696"
     transform="translate(60.985509,54.48177)" /><g
     id="g5790"
     transform="matrix(0.61270434,0,0,0.62754842,191.48584,63.940408)"><g
       id="g5749"><g
         id="live-help"><path
           id="path5752"
           d="m 446.25,0 -357,0 c -28.05,0 -51,22.95 -51,51 l 0,357 c 0,28.05 22.95,51 51,51 l 102,0 76.5,76.5 76.5,-76.5 102,0 c 28.05,0 51,-22.95 51,-51 l 0,-357 c 0,-28.05 -22.95,-51 -51,-51 z m -153,408 -51,0 0,-51 51,0 0,51 z M 346.8,211.65 323.85,234.6 c -20.399,17.85 -30.6,33.15 -30.6,71.4 l -51,0 0,-12.75 c 0,-28.05 10.2,-53.55 30.6,-71.4 l 30.601,-33.15 c 10.2,-7.65 15.3,-20.4 15.3,-35.7 0,-28.05 -22.95,-51 -51,-51 -28.05,0 -51,22.95 -51,51 l -51,0 c 0,-56.1 45.9,-102 102,-102 56.1,0 102,45.9 102,102 -10e-4,22.95 -10.201,43.35 -22.951,58.65 z"
           inkscape:connector-curvature="0" /></g></g><g
       id="g5754" /><g
       id="g5756" /><g
       id="g5758" /><g
       id="g5760" /><g
       id="g5762" /><g
       id="g5764" /><g
       id="g5766" /><g
       id="g5768" /><g
       id="g5770" /><g
       id="g5772" /><g
       id="g5774" /><g
       id="g5776" /><g
       id="g5778" /><g
       id="g5780" /><g
       id="g5782" /></g></svg>