<?xml version="1.0" encoding="iso-8859-1"?>

<svg version="1.1" id="Layer_1" xmlns="http://www.w3.org/2000/svg" xmlns:xlink="http://www.w3.org/1999/xlink" x="0px" y="0px"
	 viewBox="0 0 512.005 512.005"  xml:space="preserve">
<g>
	<g>
		<polygon points="494.297,112.111 447.092,64.906 488.398,23.6 364.482,53.104 411.689,100.309 370.383,141.615 		"/>
	</g>
</g>
<g>
	<g>
		
			<rect x="400.696" y="219.439" transform="matrix(0.7071 -0.7071 0.7071 0.7071 -74.0125 393.713)" width="75.103" height="133.516"/>
	</g>
</g>
<g>
	<g>
		
			<rect x="188.258" y="7.006" transform="matrix(0.7071 -0.7071 0.7071 0.7071 13.9789 181.2767)" width="75.103" height="133.516"/>
	</g>
</g>
<g>
	<g>
		<path d="M329.078,300.932l-53.106,53.106c-32.588,32.588-85.424,32.588-118.014,0c-32.588-32.588-32.588-85.424,0-118.014
			l53.106-53.107l-94.41-94.41l-53.107,53.106c-84.73,84.73-84.73,222.106,0,306.836c84.728,84.728,222.097,84.73,306.828,0.008
			c0.003-0.003,0.005-0.005,0.008-0.008l53.106-53.106L329.078,300.932z"/>
	</g>
</g>

</svg>
