<?xml version="1.0" encoding="UTF-8" standalone="no"?>
<!-- Generator: Adobe Illustrator 16.0.0, SVG Export Plug-In . SVG Version: 6.00 Build 0)  -->

<svg
   xmlns:dc="http://purl.org/dc/elements/1.1/"
   xmlns:cc="http://creativecommons.org/ns#"
   xmlns:rdf="http://www.w3.org/1999/02/22-rdf-syntax-ns#"
   xmlns:svg="http://www.w3.org/2000/svg"
   xmlns="http://www.w3.org/2000/svg"
   xmlns:sodipodi="http://sodipodi.sourceforge.net/DTD/sodipodi-0.dtd"
   xmlns:inkscape="http://www.inkscape.org/namespaces/inkscape"
   version="1.1"
   id="Capa_1"
   x="0px"
   y="0px"
   viewBox="0 0 511.627 511.627"
   style="enable-background:new 0 0 511.627 511.627;"
   xml:space="preserve"
   inkscape:version="0.91 r13725"
   sodipodi:docname="ranking.svg"><metadata
     id="metadata51"><rdf:RDF><cc:Work
         rdf:about=""><dc:format>image/svg+xml</dc:format><dc:type
           rdf:resource="http://purl.org/dc/dcmitype/StillImage" /><dc:title></dc:title></cc:Work></rdf:RDF></metadata><defs
     id="defs49" /><sodipodi:namedview
     pagecolor="#ffffff"
     bordercolor="#666666"
     borderopacity="1"
     objecttolerance="10"
     gridtolerance="10"
     guidetolerance="10"
     inkscape:pageopacity="0"
     inkscape:pageshadow="2"
     inkscape:window-width="852"
     inkscape:window-height="480"
     id="namedview47"
     showgrid="false"
     inkscape:zoom="0.46127353"
     inkscape:cx="255.81351"
     inkscape:cy="255.81351"
     inkscape:window-x="0"
     inkscape:window-y="0"
     inkscape:window-maximized="0"
     inkscape:current-layer="Capa_1" /><g
     id="g3"
     transform="matrix(0,-1,1,0,4.1771062e-4,511.62542)"><g
       id="g5"><path
         d="m 260.494,219.271 127.906,0 c 2.666,0 4.855,-0.855 6.563,-2.57 1.715,-1.713 2.573,-3.9 2.573,-6.567 l 0,-54.816 c 0,-2.667 -0.858,-4.854 -2.573,-6.567 -1.708,-1.711 -3.897,-2.57 -6.563,-2.57 l -127.906,0 c -2.666,0 -4.853,0.855 -6.567,2.57 -1.71,1.713 -2.568,3.9 -2.568,6.567 l 0,54.816 c 0,2.667 0.855,4.854 2.568,6.567 1.714,1.712 3.901,2.57 6.567,2.57 z"
         id="path7"
         inkscape:connector-curvature="0" /><path
         d="m 260.497,73.089 73.087,0 c 2.666,0 4.856,-0.855 6.563,-2.568 1.718,-1.714 2.563,-3.901 2.563,-6.567 l 0,-54.818 c 0,-2.663 -0.846,-4.853 -2.563,-6.567 C 338.44,0.859 336.25,0 333.584,0 l -73.087,0 c -2.666,0 -4.853,0.855 -6.567,2.568 -1.709,1.715 -2.568,3.905 -2.568,6.567 l 0,54.818 c 0,2.666 0.855,4.853 2.568,6.567 1.715,1.71 3.901,2.569 6.567,2.569 z"
         id="path9"
         inkscape:connector-curvature="0" /><path
         d="m 196.54,401.991 -54.817,0 0,-392.855 c 0,-2.663 -0.854,-4.856 -2.568,-6.567 C 137.441,0.859 135.254,0 132.587,0 L 77.769,0 c -2.663,0 -4.856,0.855 -6.567,2.568 -1.709,1.715 -2.568,3.905 -2.568,6.567 l 0,392.855 -54.818,0 c -4.184,0 -7.04,1.902 -8.564,5.708 -1.525,3.621 -0.855,6.95 1.997,9.996 l 91.361,91.365 c 2.094,1.707 4.281,2.562 6.567,2.562 2.474,0 4.665,-0.855 6.567,-2.562 l 91.076,-91.078 c 1.906,-2.279 2.856,-4.571 2.856,-6.844 0,-2.676 -0.859,-4.859 -2.568,-6.584 -1.713,-1.706 -3.9,-2.562 -6.568,-2.562 z"
         id="path11"
         inkscape:connector-curvature="0" /><path
         d="m 504.604,441.109 c -1.715,-1.718 -3.901,-2.573 -6.567,-2.573 l -237.54,0 c -2.666,0 -4.853,0.855 -6.567,2.573 -1.709,1.711 -2.568,3.901 -2.568,6.564 l 0,54.815 c 0,2.673 0.855,4.853 2.568,6.571 1.715,1.711 3.901,2.566 6.567,2.566 l 237.539,0 c 2.666,0 4.853,-0.855 6.567,-2.566 1.711,-1.719 2.566,-3.898 2.566,-6.571 l 0,-54.815 c 0.004,-2.662 -0.855,-4.853 -2.565,-6.564 z"
         id="path13"
         inkscape:connector-curvature="0" /><path
         d="m 260.494,365.445 182.726,0 c 2.663,0 4.853,-0.855 6.57,-2.566 1.708,-1.711 2.563,-3.901 2.563,-6.563 l 0,-54.823 c 0,-2.662 -0.855,-4.853 -2.563,-6.563 -1.718,-1.711 -3.907,-2.566 -6.57,-2.566 l -182.726,0 c -2.666,0 -4.853,0.855 -6.567,2.566 -1.71,1.711 -2.568,3.901 -2.568,6.563 l 0,54.823 c 0,2.662 0.855,4.853 2.568,6.563 1.714,1.711 3.901,2.566 6.567,2.566 z"
         id="path15"
         inkscape:connector-curvature="0" /></g></g><g
     id="g17" /><g
     id="g19" /><g
     id="g21" /><g
     id="g23" /><g
     id="g25" /><g
     id="g27" /><g
     id="g29" /><g
     id="g31" /><g
     id="g33" /><g
     id="g35" /><g
     id="g37" /><g
     id="g39" /><g
     id="g41" /><g
     id="g43" /><g
     id="g45" /></svg>