<?xml version="1.0" encoding="UTF-8" standalone="no"?>
<svg
   xmlns:dc="http://purl.org/dc/elements/1.1/"
   xmlns:cc="http://creativecommons.org/ns#"
   xmlns:rdf="http://www.w3.org/1999/02/22-rdf-syntax-ns#"
   xmlns:svg="http://www.w3.org/2000/svg"
   xmlns="http://www.w3.org/2000/svg"
   xmlns:sodipodi="http://sodipodi.sourceforge.net/DTD/sodipodi-0.dtd"
   xmlns:inkscape="http://www.inkscape.org/namespaces/inkscape"
   version="1.1"
   id="Capa_1"
   x="0px"
   y="0px"
   viewBox="0 0 612 612"
   style="enable-background:new 0 0 612 612;"
   xml:space="preserve"
   inkscape:version="0.91 r13725"
   sodipodi:docname="sandclock.svg"><metadata
     id="metadata13"><rdf:RDF><cc:Work
         rdf:about=""><dc:format>image/svg+xml</dc:format><dc:type
           rdf:resource="http://purl.org/dc/dcmitype/StillImage" /></cc:Work></rdf:RDF></metadata><defs
     id="defs11" /><sodipodi:namedview
     pagecolor="#ffffff"
     bordercolor="#666666"
     borderopacity="1"
     objecttolerance="10"
     gridtolerance="10"
     guidetolerance="10"
     inkscape:pageopacity="0"
     inkscape:pageshadow="2"
     inkscape:window-width="852"
     inkscape:window-height="480"
     id="namedview9"
     showgrid="false"
     inkscape:zoom="0.38562092"
     inkscape:cx="291.44451"
     inkscape:cy="306"
     inkscape:window-x="0"
     inkscape:window-y="0"
     inkscape:window-maximized="0"
     inkscape:current-layer="Capa_1" /><g
     id="g3"
     transform="matrix(1,0,0,0.76694915,0,70.627114)"><g
       id="g5"><path
         d="m 499.639,535.5 0,-459 0,-5.977 0,-17.93 c 0,0 0,0 9.562,0 C 547.45,52.594 547.249,0 547.249,0 L 64.745,0 c 0,0 -0.201,52.594 38.049,52.594 4.112,0 7.22,0 9.562,0 l 0,17.93 0,5.976 0,459 0,20.32 0,3.586 c 0,0 0,0 -9.562,0 -38.25,0 -38.049,52.594 -38.049,52.594 l 482.51,0 c 0,0 0.201,-52.594 -38.049,-52.594 -9.562,0 -9.562,0 -9.562,0 l 0,-3.586 0,-20.32 -0.005,0 z M 407.303,355.495 c 52.594,40.416 71.494,111.428 46.02,172.646 0,0 -68.032,-71.136 -128.099,-136.079 l 0,-133.09 c 22.634,-3.361 44.6,-12.513 63.352,-27.903 15.912,-13 32.173,-37.428 41.735,-66.115 l -248.626,0 c 9.562,28.688 26.096,53.115 41.937,66.115 18.752,15.391 40.717,24.542 63.352,27.903 l 0,133.091 c -66.24,72.513 -128.262,136.079 -128.262,136.079 -25.513,-61.224 -6.612,-132.23 46.02,-172.646 15.501,-11.953 32.981,-19.909 51.064,-24.838 l 0,-49.343 C 237.718,276.424 220.271,268.429 204.732,256.51 152.1,216.094 133.2,145.083 158.712,83.864 l 3.065,-7.363 288.482,0 3.064,7.358 c 25.475,61.224 6.574,132.23 -46.02,172.646 -15.539,11.915 -32.947,19.909 -51.102,24.805 l 0,49.381 c 18.154,4.895 35.563,12.851 51.102,24.804 z"
         id="path7"
         inkscape:connector-curvature="0" /></g></g></svg>